<?xml version="1.0" encoding="utf-8"?>
<!-- Generator: Adobe Illustrator 16.0.0, SVG Export Plug-In . SVG Version: 6.00 Build 0)  -->
<!DOCTYPE svg PUBLIC "-//W3C//DTD SVG 1.1//EN" "http://www.w3.org/Graphics/SVG/1.1/DTD/svg11.dtd">
<svg version="1.1" id="Layer_1" xmlns="http://www.w3.org/2000/svg" xmlns:xlink="http://www.w3.org/1999/xlink" x="0px" y="0px"
	 width="3029px" height="1767px" viewBox="0 0 3029 1767" enable-background="new 0 0 3029 1767" xml:space="preserve">
<g>
	<g>
		<path fill-rule="evenodd" clip-rule="evenodd" fill="transparent" d="M2,1205.999c0-76,0-152,0-228
			c1.885,7.355,4.207,14.631,5.577,22.082c4.516,24.56,12.913,47.692,26.393,68.643c21.404,33.268,52.547,53.237,90.304,63.427
			c22.984,6.203,46.423,8.346,70.235,8.324c177.664-0.163,355.328-0.181,532.992,0.056c17.567,0.023,35.208,0.81,52.551,4.81
			c14.802,3.414,29.747,3.497,44.424-1.175c4.454-1.418,9.698-2.814,10.596-8.057c1.246-7.281,6.302-9.241,12.104-11.489
			c22.708-8.801,42.7-21.483,58.309-40.68c16.198-19.919,26.554-42.593,30.169-67.705c5.118-35.545,9.652-71.255,6.876-107.376
			c-0.407-5.3-0.218-10.661-0.044-15.985c0.392-11.974,1.318-23.942,1.367-35.915c0.164-40.332,0.035-80.665,0.032-120.998
			c0-2.998,0.063-5.999,0.182-8.994c0.177-4.446,2.586-6.998,6.987-6.595c7.905,0.722,14.295-1.731,19.529-7.683
			c1.042-1.185,2.743-1.962,4.289-2.503c8.193-2.865,12.675-9.368,16.462-16.552c3.878-7.356,7.569-14.812,11.532-22.122
			c2.008-3.704,4.226-7.469,10.773-7.503c0,4.472,0.029,8.372-0.004,12.272c-0.498,58.639-1.286,117.277-1.444,175.917
			c-0.246,91.331-0.07,182.663-0.061,273.995c0.001,16.169,0.028,16.189,15.878,16.191c68.999,0.009,137.999-0.091,206.997,0.141
			c7.536,0.025,15.2,1.37,22.571,3.1c13.899,3.263,27.824,4.353,41.451,0.005c7.823-2.496,15.519-3.272,23.551-3.271
			c214.33,0.037,428.66,0.038,642.991,0.015c18.084-0.002,18.352,2.072,18.332-18.757c-0.067-71.999-0.076-143.998,0.007-215.997
			c0.022-20.163-0.752-17.969-18.131-17.972c-192.997-0.027-385.994-0.016-578.992-0.021c-16.402-0.001-16.418-0.022-16.421-16.697
			c-0.008-52.333-0.006-104.665-0.001-156.998c0.001-17.531,0.012-17.542,17.562-17.542c176.331-0.003,352.661,0.001,528.992-0.007
			c15.404-0.001,15.435-0.034,15.438-15.563c0.012-65.666,0.004-131.332,0.007-196.998c0.001-18.164,1.188-17.946-18.142-17.943
			c-174.998,0.03-349.996,0.009-524.993,0.03c-17.965,0.002-17.458,0.525-17.227-17.719c0.637-50.305,1.324-100.609,1.893-150.915
			c0.195-17.284,0.061-17.294,17.808-17.294c192.664-0.002,385.328,0.001,577.992-0.008c16.121-0.001,16.376-0.251,16.379-16.022
			c0.016-74.333,0.016-148.665,0.001-222.997c-0.003-15.14-0.041-15.154-14.844-15.186c-260.302-0.554-520.604-1.274-780.905-1.513
			c-52.623-0.048-105.267-1.738-157.897,1.401c-20.125,1.2-18.704-0.52-18.708,19.553c-0.034,181.664-0.055,363.328-0.083,544.992
			c0,3.667,0.457,7.424-0.199,10.973c-0.636,3.436-1.794,7.141-3.857,9.87c-4.204,5.561-8.906,10.814-13.883,15.706
			c-8.031,7.893-14.738,17.27-25.341,22.352c-9.473,4.541-17.493,10.872-22.522,20.431c-0.167,0.317-1.184,0.187-3.104,0.429
			c-0.271-4.833-0.774-9.629-0.775-14.427c-0.04-204.331-0.031-408.661-0.04-612.991c0-16.517-0.147-16.654-16.756-16.655
			c-114.332-0.008-228.664-0.007-342.996-0.001c-16.135,0.001-16.161,0.021-16.162,15.9c-0.009,94.666,0.006,189.331-0.007,283.996
			c-0.018,128.664,0.103,257.33-0.27,385.993c-0.05,17.247-1.286,34.725-4.281,51.688c-12.407,70.265-79.603,115.599-149.337,98.431
			c-50.186-12.356-91.766-60.731-92.058-117.072c-0.067-12.999,0.127-26,0.043-38.999c-0.072-11.037-0.887-11.897-12.095-11.898
			C207.33,695.917,104.665,695.967,2,696c0-118,0-236,0-354c4.163,7.046,14.721,9.622,14.057,20.121
			c-0.042,0.666,1.256,1.447,1.976,2.125c7.249,6.835,14.28,13.926,21.855,20.376c3.933,3.35,6.017,6.684,3.95,11.301
			c4.934,2.818,10.463,4.302,13.224,7.905c5.572,7.274,13.15,11.025,20.662,15.283c5.124,2.903,10.014,6.22,15.276,9.52
			c-1.012,2.219-1.605,3.346-2.047,4.53c-0.542,1.45-0.957,2.947-1.476,4.58c25.203,19.356,54.149,22.354,83.832,21.267
			c0.104,1.752,0.298,2.44,0.146,3.04c-0.243,0.958-0.636,1.9-1.105,2.774c-7.513,14.021-11.329,29.054-12.887,44.829
			c-2.978,30.149-6.399,60.254-9.311,90.41c-1.305,13.519,1.882,26.302,7.442,38.663c4.367-0.359,7.833-0.645,11.042-0.909
			c2.633-5.481-0.054-9.678-1.651-13.936c-4.736-12.631-7.456-25.582-6.284-39.121c1.12-12.931,1.997-25.909,3.828-38.745
			c2.538-17.792,5.527-35.538,8.987-53.173c2.065-10.528,7.562-19.525,15.434-27.945c2.423,2.754,4.142,4.691,5.844,6.644
			c8.969,10.287,17.425,21.087,27.06,30.707c7.733,7.721,16.524,14.547,25.526,20.789c8.868,6.149,18.563,11.116,27.952,16.502
			c4.696,2.694,6.876,1.56,8.414-4.132c0.828-3.064,1.599-6.145,2.457-9.457c3.059,0.454,5.134,0.391,6.909,1.09
			c7.74,3.051,15.411,6.283,23.071,9.534c3.671,1.558,7.245,4.631,10.896,4.685c7.457,0.108,13.359,3.705,19.743,6.396
			c2.973,1.253,6.01,2.358,9.874,3.864c0.966-9.294,6.774-9.625,13.195-8.869c1.651,0.195,3.355,0.166,4.95,0.572
			c5.499,1.402,10.861,5.833,16.563,0.093c0.692-0.697,3.152,0.229,4.75,0.591c6.165,1.396,12.29,2.983,18.481,4.246
			c2.037,0.416,4.23,0.065,8.69,0.065c-18.57-24.399-37.15-46.184-52.631-70.768c2.019-1.359,3.225-2.661,4.684-3.079
			c14.995-4.292,29.705-9.741,45.608-10.217c4.832-0.145,10.63-0.446,14.169-3.1c4.399-3.299,8.652-4.476,13.684-4.735
			c8.698-0.449,15.745-5.387,23.227-7.525c-5.158-7.048-10.374-13.076-14.308-19.848c-4.276-7.359-3.493-9.51,4.206-13.351
			c13.042-6.507,26.368-12.446,39.563-18.648c1.954-0.919,3.844-1.974,5.679-2.921c-0.494-1.391-0.547-2.163-0.957-2.607
			c-8.199-8.868-5.606-12.236,2.553-16.952c7.063-4.083,13.582-9.109,20.694-13.959c-4.393-6.872-0.645-11.27,3.353-15.469
			c6.393-6.716,13.146-13.105,19.277-20.047c3.015-3.413,5.297-7.604,7.251-11.754c0.722-1.534-0.448-3.958-0.816-6.382
			c-1.948,0.783-3.022,0.935-3.707,1.533c-7.74,6.752-15.034,14.373-26.907,11.927c-1.145-0.236-2.517,0.755-3.808,1.077
			c-6.077,1.516-12.162,2.997-18.881,4.646c-0.167-7.436-4.158-6.259-8.958-5.283c-14.559,2.962-29.222,5.405-44.374,8.146
			c-1.725-5.803-3.102-10.435-4.731-15.918c-12.114,2.353-24.707,2.571-35.281,7.301c-24.577,10.993-50.022,12.284-76.201,11.608
			c-0.255-1.149-0.878-2.229-0.607-2.994c3.552-10.032,6.541-20.341,11.035-29.943c6.872-14.68,17.683-26.47,29.816-37.169
			c7.265-6.406,16.938-10.955,18.665-22.218c0.189-1.242,2.236-2.384,3.633-3.221c4.276-2.561,8.724-4.84,12.978-7.436
			c4.804-2.932,10.704-5.145,13.924-9.355c5.613-7.339,13.353-11.665,19.918-17.557c4.129-3.704,10.616-5.867,12.026-14.171
			c-6.229,1.071-11.62,2.649-17.034,2.735c-4.758,0.076-11.248,0.074-13.902-2.765c-3.646-3.899-7.092-4.146-11.312-4.145
			c-7.331,0.003-14.665,0.26-21.993,0.143c-2.436-0.039-4.858-0.901-8.192-1.567c1.718-3.422,2.914-5.717,4.032-8.049
			c4.457-9.295,9.026-18.542,13.232-27.95c1.007-2.251,1.813-5.556,0.88-7.496c-1.627-3.38-0.071-5.553,0.869-8.374
			c2.558-7.669,4.235-15.547,4.743-24.012c-7.407,0.701-13.816,2.833-19.353-2.734c2.285-11.636,4.568-23.258,6.975-35.508
			c-6.394-0.86-8.396-4.074-7.71-9.749c1.234-10.205,1.891-20.479,2.826-30.721c0.271-2.976,1.239-6.021,0.831-8.883
			c-0.319-2.243-2.271-4.253-3.497-6.367c-1.824,1.198-4.29,1.993-5.35,3.673c-2.833,4.494-4.938,9.44-7.575,14.068
			c-1.783,3.129-3.35,7.009-6.139,8.783c-3.797,2.415-5.171,5.74-6.888,9.342c-2.521,5.291-4.072,11.372-10.333,14.682
			c-2.415-1.48-4.828-2.96-7.975-4.89c-7.596,11.3-14.911,22.182-22.96,34.156c-8.018-5.618-14.839-10.397-22.611-15.843
			c-3.441,10.932-6.375,20.71-9.608,30.389c-3.054,9.145-5.997,18.366-9.768,27.222c-4.058,9.53-9.875,11.109-18.043,4.899
			c-5.526-4.202-10.146-9.585-15.269-14.334c-2.174-2.014-4.602-5.327-6.913-5.326c-7.067,0.002-9.449-5.153-12.926-9.467
			c-2.776-3.445-4.133-8.539-10.896-9.395c-0.585,3.633-1.122,7.065-1.692,10.493c-1.192,7.159-0.6,15.417-4.112,21.163
			c-3.5,5.725-3.479,10.087-2.102,15.716c1.431,5.845,4.804,12.164-2.582,16.864c-0.827,0.526-1.058,2.435-1.075,3.708
			c-0.073,5.648-1.046,11.563,0.267,16.9c5.016,20.395,3.813,41.014,3.586,61.652c-0.12,10.92-5.4,18.707-13.1,25.322
			c-1.084-0.536-1.848-0.672-2.211-1.127c-16.284-20.421-31.208-41.584-37.413-67.611c-0.838-3.514-2.508-6.843-3.918-10.205
			c-1.624-3.874-3.204-7.782-5.126-11.509c-3.74-7.249-6.228-15.289-12.401-21.381c-3.201,2.502-5.924,4.629-8.61,6.729
			c-1.42-1.116-2.466-1.558-2.905-2.339c-6.323-11.265-12.71-22.498-18.772-33.903c-3.678-6.919-4.733-7.71-11.215-6.068
			c-5.613-7.231-10.963-14.404-16.618-21.33c-5.675-6.951-9.481-16.062-21.439-19.082c0.961,4.471,1.414,7.564,2.305,10.527
			c2.103,6.994,4.71,13.849,6.514,20.913c0.878,3.438,1.92,8.322,0.242,10.615c-3.544,4.843-2.114,9.197-1.425,13.984
			c0.376,2.621,0.338,5.327,0.238,7.985c-0.345,9.211-1.869,10.366-11.551,9.212c-0.468-0.056-1.032,0.699-1.964,1.377
			c0.202,1.677,0.373,3.608,0.673,5.52c1.187,7.56,4.372,15.458,3.115,22.578c-1.479,8.378,1.394,15.677,1.659,23.479
			c0.068,1.998,0.264,3.993,0.303,5.991c0.195,10.017-1.721,12.061-11.533,10.836c-6.143-0.767-12.164-2.509-19.415-4.066
			c0,3.652-0.467,6.589,0.095,9.314c1.263,6.124,4.5,12.213,4.207,18.183c-0.323,6.578,2.731,10.576,5.943,15.197
			c3.608,5.189,7.065,10.506,10.237,15.971c7.689,13.245,15.242,26.57,22.682,39.957c1.358,2.444,1.92,5.331,2.826,7.946
			c-1.833,0.998-2.671,1.82-3.563,1.884c-16.854,1.22-33.708,2.487-50.581,3.403C10.573,335.37,6.271,334.412,2,334
			C2,223.346,2,112.693,2,2.02c1009.867,0,2019.734,0,3029.8,0c0,589.778,0,1179.576,0,1769.677c-1009.801,0-2019.8,0-3029.8,0
			c0-102.389,0-205.043,0-307.697c10.33,0.063,20.659,0.183,30.989,0.182c468.296-0.008,936.593-0.028,1404.89-0.044
			c524.292-0.018,1048.585-0.032,1572.876-0.051c17.357-0.001,17.365-0.011,17.366-17.668c0.004-74.327,0.003-148.655-0.001-222.982
			c0-3,0.109-6.009-0.085-8.997c-0.456-7.004-1.492-8.136-8.276-8.538c-4.318-0.257-8.662-0.105-12.995-0.105
			c-899.596,0.017-1799.193,0.03-2698.79,0.06C205.983,1205.858,103.992,1205.948,2,1205.999z M2544.035,31.706
			c-156.654,0-313.307-0.002-469.96,0.003c-16.275,0-16.291,0.02-16.292,16.686c-0.006,73.66-0.006,147.321,0,220.981
			c0.001,16.579,0.016,16.604,16.444,16.6c90.992-0.021,181.983-0.064,272.976-0.077c22.439-0.003,20.785-1.668,20.787,20.274
			c0.01,272.643,0.014,545.287-0.01,817.929c-0.002,20.667-0.566,19.975,19.471,19.97c106.658-0.027,213.316-0.029,319.973,0.001
			c20.626,0.007,18.787,0.445,18.781-19.265c-0.082-274.31-0.189-548.62-0.282-822.929c-0.005-15.959,0.026-15.987,16.12-15.983
			c90.659,0.02,181.318,0.062,271.977,0.074c15.81,0.002,16.05-0.257,16.053-16.346c0.013-73.66,0.01-147.321,0.004-220.981
			c-0.002-16.924-0.016-16.935-17.081-16.935C2856.675,31.704,2700.354,31.706,2544.035,31.706z M1485.473,1654.767
			c-1.249,0.688-2.498,1.377-3.747,2.064c-2.125-2.99-3.892-6.331-6.427-8.92c-38.438-39.265-76.843-78.564-115.553-117.562
			c-18.006-18.14-10.171-14.664-36.254-14.936c-14.019-0.146-14.08,0.025-14.089,13.635c-0.027,47.96-0.013,95.921-0.004,143.881
			c0.001,2.33,0.068,4.661,0.162,6.99c0.159,3.959,2.233,6.237,6.201,6.35c5.321,0.15,10.651,0.131,15.976,0.048
			c4.49-0.07,6.588-2.607,6.656-6.983c0.047-2.997,0.125-5.993,0.125-8.989c0.009-38.302,0.006-76.604,0.006-114.905
			c0-3.521,0-7.043,0-12.539c3.765,3.069,5.874,4.507,7.647,6.279c11.778,11.771,23.534,23.566,35.206,35.444
			c30.341,30.878,60.563,61.876,91.046,92.612c3.613,3.644,8.237,7.583,12.962,8.523c7.371,1.468,15.231,0.593,22.882,0.498
			c3.973-0.05,6.028-2.424,6.167-6.372c0.105-2.995,0.163-5.992,0.164-8.988c0.01-46.629,0.007-93.257,0.005-139.885
			c0-2.331,0.073-4.668-0.063-6.992c-0.426-7.251-1.205-8.169-8.076-8.543c-4.316-0.236-8.667-0.239-12.983,0.005
			c-6.457,0.364-7.4,1.343-7.893,7.712c-0.23,2.981-0.113,5.991-0.114,8.988c-0.005,37.303-0.003,74.605-0.003,111.907
			C1485.473,1647.649,1485.473,1651.208,1485.473,1654.767z M1873.478,1600.511c0.006,0,0.011,0,0.016,0
			c0,25.315-0.088,50.632,0.049,75.946c0.047,8.68,1.251,9.896,9.835,9.968c17.652,0.146,35.333,0.575,52.954-0.196
			c20.103-0.88,39.461-5.3,57.516-14.88c28.92-15.348,49.332-53.896,39.629-89.147c-5.136-18.659-14.232-34.306-29.886-45.9
			c-18.274-13.536-39.142-19.86-61.529-20.722c-18.959-0.729-37.968-0.247-56.954-0.171c-11.021,0.045-11.574,0.632-11.607,12.153
			C1873.429,1551.878,1873.478,1576.194,1873.478,1600.511z M921.797,1558.519c-0.601-2.507-0.871-4.815-1.7-6.901
			c-7.253-18.259-20.829-29.856-39.124-35.993c-32.381-10.862-64.828-10.263-96.923,1.061
			c-35.255,12.438-56.453,43.439-56.338,81.394c0.112,37.03,21.877,67.974,56.343,80.56c22.419,8.187,45.658,9.766,68.955,7.226
			c12.05-1.314,24.066-5.255,35.467-9.645c14.926-5.746,25.278-17.009,31.417-31.865c1.072-2.594,1.415-5.489,2.324-9.173
			c-6.521-1.488-11.933-2.858-17.4-3.938c-8.54-1.688-8.542-1.597-12.967,6.281c-4.63,8.243-9.784,16.193-19.226,19.46
			c-27.627,9.561-54.982,9.104-81.566-3.689c-15.649-7.531-25.522-20.105-29.271-37.101c-2.221-10.069-3.241-20.149-1.728-30.657
			c3.833-26.631,19.458-45.46,45.361-52.5c7.029-1.91,14.364-3.618,21.585-3.734c26.78-0.429,52.488,2.058,66.036,30.642
			c0.962,2.028,3.834,4.611,5.682,4.508C906.569,1564.01,914.542,1563.283,921.797,1558.519z M1796.206,1678.605
			c-2.339-5.21-3.537-8.207-4.993-11.073c-24.145-47.513-48.284-95.029-72.51-142.501c-10.046-19.685-5.86-16.749-28.543-17.503
			c-8.921-0.297-13.891,2.726-17.701,10.916c-15.876,34.122-32.38,67.952-48.646,101.893c-7.197,15.018-14.467,30.003-21.497,45.098
			c-1.714,3.68-2.616,7.738-4.432,13.266c8.436,0,15.044-0.279,21.616,0.082c6.215,0.342,9.927-2.211,12.311-7.852
			c4.667-11.041,9.901-21.846,14.432-32.939c2.712-6.641,6.531-9.8,14.19-9.649c22.979,0.451,45.977,0.397,68.958,0.021
			c7.044-0.115,10.938,2.297,13.721,8.759c5.002,11.614,10.806,22.885,16.281,34.295c1.772,3.694,3.707,7.197,8.593,7.192
			C1776.571,1678.599,1785.157,1678.605,1796.206,1678.605z M1222.393,1686.252c-2.573-5.968-3.918-9.616-5.665-13.061
			c-23.208-45.748-46.407-91.5-69.748-137.18c-12.98-25.404-8.017-19.793-33.635-20.724c-6.897-0.251-10.836,2.08-13.856,8.55
			c-12.682,27.161-25.977,54.033-38.931,81.067c-11.082,23.128-22.04,46.315-32.954,69.522c-1.475,3.138-2.375,6.546-4.163,11.581
			c8.597,0.179,15.465,0.142,22.311,0.519c6.315,0.348,9.691-2.7,12.036-8.284c4.898-11.666,10.608-23.001,15.225-34.771
			c2.605-6.643,6.386-9.025,13.476-8.899c21.981,0.391,43.987,0.59,65.956-0.075c9.164-0.277,13.994,3.006,17.379,11.231
			c4.683,11.381,10.16,22.461,15.832,33.393c1.503,2.898,4.79,6.532,7.557,6.807
			C1202.022,1686.802,1210.975,1686.252,1222.393,1686.252z M2299.857,1685.649c-1.877-4.699-2.936-8.079-4.518-11.192
			c-12.068-23.757-24.291-47.437-36.363-71.191c-13.129-25.837-26.278-51.665-39.132-77.64c-3.658-7.395-8.477-11.497-17.115-10.328
			c-3.599,0.487-7.352,0.396-10.977,0.016c-7.343-0.771-11.373,2.323-14.514,9.061c-12.383,26.564-25.402,52.832-38.067,79.266
			c-11.369,23.729-22.61,47.519-33.829,71.318c-1.355,2.875-2.214,5.984-3.417,9.301c7.223,3.676,13.977,1.576,20.418,2.25
			c6.976,0.73,11.058-2.248,13.712-8.795c4.753-11.722,10.538-23.026,15.207-34.777c2.499-6.29,6.188-8.44,12.815-8.344
			c22.317,0.326,44.648,0.439,66.96-0.046c8.108-0.177,12.962,2.262,16.169,9.915c4.886,11.662,10.535,23.017,16.227,34.317
			c1.395,2.767,3.941,6.506,6.418,6.898C2279.254,1687.169,2288.818,1686.935,2299.857,1685.649z"/>
		<path fill-rule="evenodd" clip-rule="evenodd" d="M2,696c102.665-0.033,205.33-0.083,307.995-0.073
			c11.208,0.001,12.023,0.861,12.095,11.898c0.084,12.999-0.111,26-0.043,38.999c0.292,56.34,41.872,104.716,92.058,117.072
			c69.734,17.168,136.93-28.166,149.337-98.431c2.995-16.963,4.231-34.441,4.281-51.688c0.373-128.664,0.252-257.329,0.27-385.993
			c0.013-94.666-0.001-189.331,0.007-283.996c0.001-15.879,0.027-15.899,16.162-15.9c114.332-0.006,228.664-0.007,342.996,0.001
			c16.609,0.001,16.756,0.138,16.756,16.655c0.009,204.331,0,408.661,0.04,612.991c0.001,4.797,0.504,9.594,0.775,14.427
			c1.921-0.242,2.938-0.112,3.104-0.429c5.029-9.559,13.049-15.891,22.522-20.431c10.603-5.083,17.31-14.459,25.341-22.352
			c4.977-4.891,9.679-10.145,13.883-15.706c2.063-2.729,3.222-6.435,3.857-9.87c0.656-3.549,0.199-7.307,0.199-10.973
			c0.028-181.664,0.048-363.328,0.083-544.992c0.004-20.073-1.418-18.353,18.708-19.553c52.63-3.139,105.274-1.449,157.897-1.401
			c260.302,0.238,520.604,0.958,780.905,1.513c14.803,0.031,14.841,0.046,14.844,15.186c0.015,74.333,0.015,148.665-0.001,222.997
			c-0.003,15.771-0.258,16.021-16.379,16.022c-192.664,0.009-385.328,0.006-577.992,0.008c-17.747,0-17.613,0.01-17.808,17.294
			c-0.568,50.306-1.256,100.61-1.893,150.915c-0.231,18.245-0.738,17.721,17.227,17.719c174.997-0.021,349.995,0,524.993-0.03
			c19.33-0.003,18.143-0.221,18.142,17.943c-0.003,65.666,0.005,131.332-0.007,196.998c-0.004,15.529-0.034,15.562-15.438,15.563
			c-176.331,0.008-352.661,0.004-528.992,0.007c-17.55,0-17.56,0.011-17.562,17.542c-0.005,52.333-0.007,104.666,0.001,156.998
			c0.003,16.674,0.02,16.696,16.421,16.697c192.998,0.005,385.995-0.007,578.992,0.021c17.379,0.003,18.153-2.191,18.131,17.972
			c-0.083,71.999-0.074,143.998-0.007,215.997c0.02,20.829-0.248,18.755-18.332,18.757c-214.331,0.023-428.661,0.022-642.991-0.015
			c-8.032-0.002-15.728,0.774-23.551,3.271c-13.627,4.348-27.552,3.258-41.451-0.005c-7.371-1.729-15.035-3.074-22.571-3.1
			c-68.998-0.231-137.998-0.132-206.997-0.141c-15.851-0.002-15.877-0.022-15.878-16.191c-0.009-91.332-0.185-182.664,0.061-273.995
			c0.158-58.64,0.946-117.278,1.444-175.917c0.033-3.9,0.004-7.8,0.004-12.272c-6.548,0.034-8.765,3.799-10.773,7.503
			c-3.962,7.31-7.654,14.766-11.532,22.122c-3.787,7.184-8.27,13.688-16.462,16.552c-1.546,0.541-3.248,1.318-4.289,2.503
			c-5.233,5.952-11.624,8.405-19.529,7.683c-4.401-0.402-6.81,2.149-6.987,6.595c-0.119,2.996-0.182,5.996-0.182,8.994
			c0.003,40.333,0.132,80.666-0.032,120.998c-0.049,11.973-0.976,23.941-1.367,35.915c-0.174,5.324-0.363,10.686,0.044,15.985
			c2.775,36.121-1.759,71.831-6.876,107.376c-3.615,25.112-13.971,47.786-30.169,67.705c-15.609,19.196-35.601,31.879-58.309,40.68
			c-5.801,2.248-10.857,4.208-12.104,11.489c-0.897,5.242-6.142,6.639-10.596,8.057c-14.677,4.672-29.622,4.589-44.424,1.175
			c-17.344-4-34.984-4.786-52.551-4.81c-177.664-0.236-355.328-0.219-532.992-0.056c-23.812,0.021-47.251-2.121-70.235-8.324
			c-37.756-10.189-68.899-30.159-90.304-63.427c-13.48-20.95-21.877-44.083-26.393-68.643C6.207,992.63,3.885,985.354,2,977.999
			C2,884,2,790,2,696z M1110.718,601.19c0.844,0.364,1.687,0.729,2.531,1.094c-1.453,16.174-2.838,32.354-4.385,48.519
			c-0.858,8.96-2.347,17.802,3.281,26.111c1.385,2.045,1.506,6.091,0.459,8.437c-4.086,9.16-2.738,18.178-0.832,27.422
			c1.612,7.82,3.898,15.742,3.865,23.61c-0.072,17.515,3.618,34.328,6.727,51.376c2.918,16.002,3.787,32.367,5.959,48.518
			c1.86,13.827,4.77,27.523,6.353,41.375c2.187,19.142,3.754,38.363,5.203,57.579c0.676,8.957,0.001,18.019,0.715,26.971
			c2.355,29.524,5.166,59.013,7.58,88.534c0.758,9.256,1.051,18.567,1.085,27.855c0.014,3.8,0.962,6.409,4.368,8.132
			c1.66,0.84,3.176,1.965,7.037,4.397c-14.662,5.71-25.37,15.282-40.274,15.059c-4.991-0.074-10.042-0.2-14.967,0.447
			c-7.326,0.965-10.928,5.44-10.989,13.117c-0.07,8.968,3.305,13.61,10.219,14.575c19.057,2.661,37.726,2.019,56.214-3.614
			c2.963-0.902,6.856-1.549,9.455-0.385c15.171,6.799,30.112,3.599,44.896-0.63c9.016-2.578,11.122-7.382,9.324-16.904
			c-0.615-3.26-1.505-6.556-1.432-9.816c0.033-1.467,1.947-3.803,3.327-4.065c1.332-0.254,4.011,1.347,4.448,2.676
			c1.015,3.087,0.894,6.526,1.492,9.775c0.778,4.221,0.448,9.723,2.994,12.328c6.591,6.746,14.466,12.246,21.919,18.13
			c0.982,0.775,2.465,1.01,3.76,1.281c11.16,2.343,22.281,3.701,33.618,0.619c7.024-1.909,14.138-4.156,16.141-11.703
			c2.153-8.116-3.22-13.505-9.221-18.435c-4.287-3.522-8.374-7.711-11.269-12.395c-3.328-5.384-2.416-9.946,2.884-12.963
			c6.12-3.481,7.074-7.973,6.269-14.128c-0.558-4.259,0.011-8.656-0.417-12.943c-2.212-22.173-4.66-44.322-6.86-66.497
			c-0.952-9.599-1.595-19.23-2.22-28.858c-1.014-15.604-1.888-31.216-2.838-46.823c-0.99-16.272-2.268-32.533-2.914-48.818
			c-0.473-11.921-0.344-23.879-0.095-35.813c0.334-15.963,1.588-31.923,1.472-47.878c-0.204-27.961-1.134-55.918-1.819-83.875
			c-0.049-1.978-0.545-3.951-0.906-5.912c-1.32-7.171-3.073-14.293-3.836-21.522c-0.358-3.402,0.503-7.311,1.964-10.454
			c3.497-7.524,8.001-14.579,11.523-22.093c11.735-25.028,23.315-50.131,34.742-75.302c3.795-8.359,5.27-17.207,2.789-26.318
			c-2.62-9.619-4.641-19.483-8.214-28.742c-5.031-13.035-11.033-25.714-17.019-38.356c-7.266-15.347-14.88-30.532-22.476-45.72
			c-4.163-8.326-8.013-16.906-13.139-24.618c-2.982-4.488-7.708-8.448-12.529-10.951c-9.721-5.048-20.064-8.888-30.102-13.339
			c-2.693-1.195-5.63-2.34-7.73-4.289c-9.619-8.923-14.803-20.347-17.36-33.014c-0.508-2.516-0.388-5.293,0.061-7.841
			c1.321-7.513,3.262-14.925,4.401-22.46c2.756-18.225,0.78-35.234-13.743-48.655c-0.958-0.885-1.835-2.02-2.336-3.211
			c-3.673-8.739-11.14-11.802-19.652-13.528c-19.098-3.871-37.263,0.635-54.6,7.608c-8.702,3.5-16.637,9.754-23.779,16.054
			c-7.679,6.773-7.795,21.059-0.063,26.811c6.489,4.827,9.033,10.042,8.47,17.637c-0.142,1.906,0.36,4.074,1.213,5.802
			c2.805,5.677,2.851,11.42,1.823,17.538c-0.448,2.665-0.08,7.353,1.457,8.15c8.022,4.158,8.756,12.292,11.257,19.202
			c5.655,15.623,5.354,15.619,21.476,14.891c4.306-0.194,9.25-1.553,13.039,3.625c-1.986,1.42-3.366,3.016-5.07,3.526
			c-10.226,3.063-17.807,10.082-26.042,16.334c-6.917,5.252-10.053,11.745-11.524,20.017c-3.147,17.694-6.417,35.398-10.592,52.87
			c-4.331,18.121-9.7,35.998-14.833,53.918c-1.079,3.766-2.378,7.875-4.821,10.778c-13.936,16.553-28.161,32.867-42.463,49.107
			c-10.123,11.494-20.299,22.958-30.86,34.044c-11.897,12.489-22.729,26.287-39.158,33.602c-2.653,1.182-5.787,3.052-6.973,5.456
			c-5.285,10.713-13.664,16.441-25.38,17.631c-8.81,9.005-19.677,8.112-31.185,7.967c-19.594-0.246-39.213,1.527-58.823,2.417
			c-1.312,0.06-2.902,0.268-3.915-0.34c-8.498-5.099-18.586-8.894-23.279-18.077c-7.771-15.206-16.167-29.865-27.185-42.951
			c-0.851-1.01-1.546-2.183-2.149-3.364c-3.421-6.697-2.397-10.88,3.718-15.48c13.867-10.431,20.584-30.98,14.891-47.116
			c-3.253-9.222-5.26-18.452-5.225-28.301c0.038-10.44-4.247-19.313-11.701-26.735c-11.886-11.835-26.752-16.153-42.817-15.928
			c-8.524,0.12-17.401,1.731-24.408,7.618c-6.611,5.555-13.344,11.06-19.264,17.307c-3.289,3.47-6.172,8.142-7.256,12.74
			c-4.23,17.942,2.058,33.338,13.226,47.123c7.106,8.77,14.739,17.137,21.439,26.199c2.089,2.826,2.938,7.453,2.523,11.043
			c-0.665,5.745-5.523,7.973-10.19,4.664c-9.02-6.395-18.859-6.17-28.789-4.429c-10.153,1.78-20.08,4.833-30.219,6.72
			c-17.365,3.231-25.313,14.659-27.94,30.946c-1.166,7.229-1.767,14.55-2.977,21.77c-5.634,33.609-4.535,67,2.789,100.246
			c1.393,6.324,2.443,12.524,10.494,13.975c1.614,0.291,2.761,2.74,4.305,3.965c2.035,1.615,4.115,4.001,6.411,4.31
			c7.522,1.01,15.271,2.316,22.712,1.501c11.291-1.235,22.398-4.154,34.26-6.491c-0.253,2.141-0.15,4.437-0.826,6.475
			c-5.742,17.308-6.721,35.26-7.265,53.252c-0.098,3.233-0.298,7.697,1.572,9.537c7.151,7.033,6.396,15.701,6.553,24.301
			c0.081,4.423,0.583,8.117,4.604,11.392c2.761,2.249,4.597,6.53,5.341,10.208c3.676,18.149,2.443,36.492,0.608,54.706
			c-1.097,10.882-3.71,21.605-5.49,32.425c-2.973,18.077-1.618,35.767,4.165,53.25c4.076,12.324,7.238,24.949,10.867,37.423
			c1.742,5.985,0.867,11.449-1.044,17.471c-2.154,6.79-2.382,14.291-2.732,21.517c-0.222,4.578,2.156,8.633,6.755,10.149
			c6.292,2.075,12.957,5.402,19.156,4.839c10.354-0.94,19.705,2.005,29.488,3.624c13.237,2.189,26.53,2.133,39.597-1.715
			c4.917-1.447,8.08-3.93,8.485-9.629c0.249-3.492,1.53-7.075,3.052-10.282c5.8-12.224,2.156-18.128-11.126-19.079
			c-6.841-0.489-13.747-2.114-20.282-4.264c-6.928-2.278-13.333-6.104-20.189-8.657c-5.176-1.928-8.357-5.311-10.054-10.291
			c-1.285-3.773-2.636-7.576-3.37-11.476c-2.545-13.519-2.111-27.063-1.146-40.782c1.023-14.563,0.613-29.284-0.125-43.888
			c-0.316-6.278,0.633-11.608,3.181-17.268c3.389-7.527,6.145-15.412,8.384-23.365c2.434-8.64,3.884-17.552,5.909-26.313
			c2.251-9.738,6.517-17.363,18.1-18.046c5.961-0.351,9.763-3.831,10.59-10.052c0.677-5.089,3.785-8.198,8.155-10.598
			c5.251-2.885,10.44-5.957,15.3-9.444c1.884-1.351,3.939-4.048,3.956-6.148c0.079-9.98-0.328-19.977-0.916-29.947
			c-1.017-17.262-2.345-34.505-3.446-51.762c-0.805-12.606-1.483-25.22-2.14-37.834c-0.082-1.565,0.314-3.155,0.543-5.226
			c10.271-0.998,20.135-2.044,30.016-2.894c11.269-0.969,22.57-1.585,33.817-2.74c3.531-0.362,9.027-0.999,10.031-3.17
			c4.125-8.924,11.047-9.284,19.043-8.49c1.57,0.156,3.224-0.894,4.863-0.997c6.239-0.391,12.513-0.374,18.723-1.01
			c3.454-0.354,7.119-1.118,10.129-2.738c4.028-2.168,7.262-5.813,11.288-7.989c7.4-4,12.311-9.937,15.854-17.361
			c3.291-6.897,6.919-13.632,10.236-20.517c3.011-6.249,8.634-9.902,14.661-10.926c2.971-0.505,6.829,4.143,10.261,6.494
			c0.542,0.371,0.978,0.905,1.429,1.395c3.128,3.391,6.383,3.03,9.67,0.29c1.534-1.279,2.993-2.647,4.471-3.991
			c14.781-13.431,29.417-27.026,44.394-40.235C1093.505,614.578,1102.241,608.031,1110.718,601.19z"/>
		<path fill-rule="evenodd" clip-rule="evenodd" d="M2,1205.999c101.992-0.051,203.983-0.141,305.975-0.145
			c899.596-0.029,1799.194-0.043,2698.79-0.06c4.333,0,8.677-0.151,12.995,0.105c6.784,0.402,7.82,1.534,8.276,8.538
			c0.194,2.988,0.085,5.997,0.085,8.997c0.004,74.327,0.005,148.655,0.001,222.982c-0.001,17.657-0.009,17.667-17.366,17.668
			c-524.291,0.019-1048.584,0.033-1572.876,0.051c-468.297,0.016-936.594,0.036-1404.89,0.044
			c-10.33,0.001-20.66-0.118-30.989-0.182C2,1377.999,2,1291.999,2,1205.999z M2086.959,1391.96
			c-0.882,0.076-1.763,0.152-2.644,0.229c-1.633-3.171-3.479-6.25-4.863-9.525c-11.287-26.7-22.483-53.439-33.717-80.164
			c-5.81-13.822-11.647-27.634-17.455-41.458c-2.024-4.82-4.476-8.927-10.685-8.837c-9.33,0.137-18.663,0.047-27.995,0.036
			c-4.994-0.007-7.263,2.599-7.269,7.453c-0.003,2.999-0.073,5.999-0.073,8.998c-0.006,45.329-0.007,90.659-0.002,135.989
			c0.001,17.765,0.01,17.766,17.8,17.027c8.545-0.354,9.401-1.228,9.678-10.129c0.083-2.664,0.027-5.333,0.027-8
			c0.001-35.996-0.009-71.993,0.016-107.99c0.003-3.428,0.215-6.855,0.329-10.283c3.412,2.321,4.997,4.762,6.131,7.396
			c8.695,20.2,17.299,40.438,25.938,60.662c8.377,19.611,16.734,39.23,25.166,58.818c1.837,4.266,3.522,8.494,9.228,9.414
			c14.61,2.354,19.044,0.342,24.964-13.024c16.597-37.468,33.052-74.999,49.605-112.486c1.392-3.151,3.104-6.161,4.667-9.237
			c0.817,0.215,1.634,0.429,2.451,0.644c0,3.52,0,7.039,0,10.56c-0.001,35.997-0.004,71.994,0.006,107.991
			c0.001,2.998,0.052,5.998,0.141,8.995c0.116,3.894,1.937,6.377,6.022,6.482c4.993,0.13,9.994,0.118,14.988,0.019
			c4.029-0.08,6.037-2.372,6.186-6.325c0.1-2.663,0.156-5.33,0.156-7.995c0.009-46.663,0.008-93.325,0.006-139.988
			c0-2,0.06-4.004-0.046-5.999c-0.4-7.581-1.378-8.712-8.763-8.994c-5.992-0.229-12.022,0.275-17.99-0.162
			c-7.404-0.543-11.462,2.511-14.402,9.356c-15.254,35.509-30.895,70.853-46.462,106.227
			C2094.509,1375.813,2090.679,1383.861,2086.959,1391.96z M2485.363,1285.153c0.889,0.217,1.775,0.434,2.662,0.65
			c0,3.622,0,7.243,0,10.864c0,35.985-0.002,71.97,0.002,107.955c0.004,17.435,1.838,19.005,18.799,17.058
			c4.316-0.495,6.863-2.184,7.014-6.701c0.076-2.33,0.15-4.662,0.15-6.993c0.008-47.313,0.008-94.627,0-141.94
			c0-2.331-0.072-4.662-0.145-6.993c-0.139-4.452-2.488-6.716-6.908-6.76c-6.996-0.07-13.996,0.068-20.986-0.15
			c-5.752-0.181-9.189,2.271-11.475,7.595c-8.146,18.973-16.617,37.807-24.926,56.711c-10.049,22.869-20.012,45.778-30.148,68.609
			c-1.225,2.76-1.742,6.567-6.355,7.098c-1.129-2.229-2.291-4.223-3.184-6.331c-10.006-23.615-19.973-47.248-29.947-70.877
			c-7.643-18.104-15.436-36.148-22.842-54.351c-2.49-6.119-6.279-8.844-12.914-8.513c-7.313,0.365-14.658-0.039-21.984,0.12
			c-8.787,0.19-10.082,1.234-10.1,9.725c-0.107,49.979-0.105,99.958-0.006,149.938c0.018,8.579,1.281,9.525,9.986,9.844
			c15.359,0.563,15.928,0.057,15.936-14.955c0.018-37.318-0.027-74.636,0.064-111.953c0.008-3.347-1.127-7.139,2.357-10.789
			c1.635,2.881,3.139,5.034,4.152,7.397c10.646,24.79,21.209,49.617,31.807,74.428c6.543,15.315,12.959,30.688,19.783,45.878
			c1.551,3.451,3.902,7.632,7.01,9.097c10.293,4.853,21.725,0.22,26.26-9.978c14.482-32.562,28.816-65.188,43.256-97.769
			C2476.822,1303.724,2481.133,1294.456,2485.363,1285.153z M606.048,1348.936c0.163-0.646,0.325-1.29,0.488-1.935
			c2.187-0.5,4.436-0.815,6.549-1.531c8.476-2.871,17.492-4.795,25.25-9.015c24.152-13.137,28.641-42.035,10.75-62.905
			c-10.961-12.787-25.884-16.638-41.252-17.037c-35.604-0.925-71.245-0.523-106.87-0.45c-7.307,0.015-8.444,1.553-8.857,8.976
			c-0.148,2.656-0.062,5.326-0.062,7.99c-0.002,44.283-0.004,88.567-0.001,132.852c0.001,18.521,2.366,20.469,20.868,18.004
			c4.43-0.59,6.619-2.618,6.711-7.004c0.056-2.662,0.119-5.325,0.122-7.988c0.014-15.649-0.057-31.299,0.035-46.947
			c0.066-11.268,0.872-12.088,11.771-12.192c9.655-0.093,19.314,0.191,28.966,0.004c11.328-0.22,20.771,4.508,29.148,11.327
			c5.119,4.168,9.624,9.225,13.829,14.354c11.182,13.637,21.954,27.61,33.129,41.252c2.217,2.707,5.282,6.034,8.343,6.491
			c9.359,1.4,18.899,1.374,29.5-0.204c-1.967-3.35-3.064-5.698-4.59-7.724c-4.205-5.581-8.496-11.104-12.92-16.512
			C641.849,1380.273,628.445,1360.082,606.048,1348.936z M1526.718,1347.442c9.131-2.625,17.91-4.596,26.277-7.684
			c12.796-4.723,22.284-13.409,26.544-26.656c6.501-20.221-4.837-43.405-25.565-51.107c-8.307-3.087-17.429-5.326-26.228-5.498
			c-34.957-0.684-69.934-0.488-104.902-0.4c-7.263,0.018-8.432,1.617-8.895,9.001c-0.104,1.66-0.055,3.33-0.055,4.995
			c-0.002,46.627-0.006,93.254,0.009,139.882c0,2.661-0.141,5.373,0.303,7.974c0.898,5.259,2.653,5.984,12.739,5.99
			c10.131,0.005,11.829-0.727,12.861-5.88c0.324-1.614,0.249-3.316,0.276-4.979c0.043-2.664,0.022-5.329,0.024-7.993
			c0.009-14.987-0.117-29.977,0.073-44.961c0.116-9.133,1.331-10.226,10.59-10.37c9.323-0.146,18.654,0.146,27.975-0.058
			c17.377-0.381,30.735,7.215,41.382,20.369c12.143,15.002,24.173,30.096,36.418,45.015c2.485,3.029,5.364,6.028,8.68,8.006
			c3.729,2.225,24.765,0.808,30.853-1.493c-7.108-9.062-14.015-17.94-21.002-26.756c-13.832-17.452-26.847-35.767-47.754-45.862
			C1527.109,1348.873,1527.079,1348.396,1526.718,1347.442z M1259.823,1306.59c1.362,0.136,2.39,0.469,3.316,0.289
			c3.924-0.763,7.832-1.62,11.721-2.549c9.118-2.177,10.038-4.012,6.021-12.235c-7.519-15.393-19.252-26.123-35.466-31.855
			c-31.665-11.194-63.429-10.481-95.185-0.55c-14.27,4.463-26.284,12.383-36.593,23.413c-25.533,27.318-28.713,74.206-6.91,104.646
			c15.181,21.195,36.872,31.416,61.445,35.675c13.667,2.368,27.833,2.479,41.775,2.492c25.29,0.021,48.34-8.461,70.331-20.311
			c5.173-2.787,7.836-6.616,7.732-12.769c-0.251-14.994,0.049-29.997-0.131-44.993c-0.099-8.244-1.272-9.551-9.167-9.607
			c-23.663-0.171-47.328-0.164-70.991-0.017c-8.129,0.051-9.29,1.492-9.416,9.336c-0.137,8.463,1.166,9.875,9.561,10.202
			c2.329,0.091,4.665,0.03,6.998,0.031c11.333,0.005,22.666-0.087,33.996,0.039c10.299,0.113,11.119,1.047,11.307,11.671
			c0.064,3.665-0.237,7.353,0.056,10.994c0.56,6.937-2.539,10.984-8.714,14.04c-29.904,14.799-60.489,17.604-91.896,5.629
			c-19.419-7.404-31.86-21.268-36.548-41.739c-3.03-13.23-2.977-26.456,0.704-39.521c4.94-17.54,15.127-30.77,31.822-38.956
			c20.809-10.203,42.63-10.181,64.506-6.181c16.905,3.092,29.949,12.545,37.16,28.853
			C1257.907,1304.089,1259.015,1305.358,1259.823,1306.59z M879.887,1425.949c12.801,1.092,26.285-0.889,39.404-4.964
			c16.858-5.237,31.697-14.044,43.035-27.729c17.671-21.331,21.027-46.356,16.119-72.571c-5.73-30.604-25.429-49.824-53.736-60.555
			c-23.935-9.075-48.577-9.847-73.698-5.003c-34.509,6.653-68.447,32.43-72.15,75.966c-2.517,29.592,6.542,54.71,30.045,73.313
			C829.235,1420.496,852.905,1427.427,879.887,1425.949z M2642.277,1336.387c0,23.647-0.029,47.294,0.012,70.94
			c0.025,13.995,0.41,14.371,14.795,14.38c42.965,0.026,85.928,0.014,128.892,0.001c2.663,0,5.356,0.095,7.977-0.271
			c1.543-0.215,4.12-1.073,4.258-1.951c0.698-4.476,1.492-9.166,0.818-13.561c-0.622-4.057-4.943-3.704-8.251-3.828
			c-2.661-0.1-5.328-0.052-7.993-0.052c-32.306-0.003-64.612,0-96.918-0.006c-2.664-0.001-5.343,0.118-7.989-0.113
			c-6.098-0.534-7.629-1.774-7.745-8.038c-0.259-13.982-0.263-27.977,0.008-41.959c0.122-6.304,1.644-7.536,7.727-8.025
			c2.979-0.239,5.991-0.109,8.988-0.11c30.308-0.011,60.616,0.056,90.923-0.063c8.891-0.035,13.672-8.984,8.87-16.512
			c-0.903-1.416-3.118-2.457-4.883-2.756c-2.923-0.496-5.972-0.304-8.967-0.306c-29.309-0.015-58.617-0.005-87.926-0.017
			c-2.663,0-5.327-0.069-7.989-0.155c-4.485-0.144-6.706-2.646-6.73-6.976c-0.073-12.653-0.066-25.307-0.013-37.96
			c0.021-5.014,2.949-7.085,7.69-7.104c2.664-0.011,5.328-0.073,7.992-0.073c31.641-0.006,63.28,0.001,94.92-0.013
			c2.996-0.001,6.092,0.316,8.953-0.338c1.979-0.453,4.512-1.926,5.283-3.628c4.049-8.937-0.38-15.668-10.232-15.685
			c-43.63-0.071-87.26-0.068-130.889-0.008c-10.926,0.015-11.527,0.699-11.559,12.246
			C2642.236,1288.427,2642.281,1312.407,2642.277,1336.387z M166.271,1332.957c0,22.65-0.009,45.302,0.003,67.952
			c0.01,16.928,0.454,17.346,17.381,16.797c9.201-0.299,10.192-1.146,10.277-10.564c0.142-15.654-0.015-31.311,0.078-46.966
			c0.066-11.202,0.893-12.061,11.858-12.134c18.986-0.126,37.978,0.128,56.958-0.229c13.051-0.246,25.901-2.291,37.888-7.849
			c12.387-5.742,21.265-14.959,25.177-28.152c7.828-26.403-5.513-51.309-32.19-58.512c-11.448-3.092-23.593-4.585-35.471-4.901
			c-26.629-0.71-53.291-0.271-79.938-0.209c-11.337,0.027-11.958,0.632-11.993,11.817
			C166.224,1284.324,166.276,1308.641,166.271,1332.957z M1893.83,1421.538c-2.208-5.205-3.281-8.25-4.743-11.095
			c-7.153-13.927-14.486-27.761-21.616-41.699c-17.298-33.813-34.514-67.667-51.773-101.499
			c-8.289-16.247-5.492-14.515-24.953-15.287c-9.868-0.392-14.882,3.458-18.972,12.146c-23.125,49.129-46.781,98.007-70.202,146.996
			c-1.226,2.564-1.947,5.371-3.022,8.399c6.825,3.559,13.23,1.716,19.358,2.199c6.274,0.496,9.636-2.635,11.979-8.298
			c4.838-11.691,10.642-22.991,15.247-34.767c2.646-6.767,6.769-8.905,13.658-8.824c22.655,0.268,45.323,0.434,67.971-0.074
			c8.683-0.195,13.452,3.128,16.743,10.867c4.818,11.332,10.4,22.342,15.692,33.473c1.743,3.666,3.591,7.387,8.447,7.439
			C1875.563,1421.601,1883.484,1421.538,1893.83,1421.538z"/>
		<path fill-rule="evenodd" clip-rule="evenodd" d="M2,334c4.271,0.412,8.573,1.37,12.81,1.14
			c16.873-0.916,33.726-2.183,50.581-3.403c0.893-0.064,1.73-0.887,3.563-1.884c-0.906-2.615-1.468-5.502-2.826-7.946
			c-7.439-13.387-14.993-26.712-22.682-39.957c-3.172-5.465-6.629-10.782-10.237-15.971c-3.212-4.621-6.266-8.619-5.943-15.197
			c0.293-5.97-2.944-12.06-4.207-18.183c-0.562-2.725-0.095-5.662-0.095-9.314c7.251,1.557,13.272,3.299,19.415,4.066
			c9.813,1.225,11.728-0.819,11.533-10.836c-0.039-1.998-0.235-3.993-0.303-5.991c-0.266-7.802-3.138-15.102-1.659-23.479
			c1.257-7.119-1.929-15.018-3.115-22.578c-0.3-1.911-0.472-3.843-0.673-5.52c0.933-0.678,1.497-1.433,1.964-1.377
			c9.682,1.153,11.206-0.001,11.551-9.212c0.1-2.658,0.139-5.364-0.238-7.985c-0.688-4.787-2.119-9.141,1.425-13.984
			c1.678-2.292,0.636-7.177-0.242-10.615c-1.804-7.064-4.411-13.919-6.514-20.913c-0.891-2.962-1.344-6.056-2.305-10.527
			c11.958,3.02,15.764,12.131,21.439,19.082c5.654,6.926,11.005,14.099,16.618,21.33c6.482-1.642,7.537-0.851,11.215,6.068
			c6.063,11.405,12.449,22.638,18.772,33.903c0.439,0.782,1.484,1.224,2.905,2.339c2.687-2.1,5.409-4.227,8.61-6.729
			c6.174,6.092,8.662,14.133,12.401,21.381c1.922,3.727,3.502,7.635,5.126,11.509c1.41,3.362,3.08,6.69,3.918,10.205
			c6.206,26.027,21.129,47.19,37.413,67.611c0.363,0.456,1.127,0.592,2.211,1.127c7.7-6.615,12.979-14.402,13.1-25.322
			c0.227-20.639,1.43-41.257-3.586-61.652c-1.313-5.337-0.339-11.252-0.267-16.9c0.017-1.274,0.248-3.183,1.075-3.708
			c7.386-4.7,4.013-11.019,2.582-16.864c-1.378-5.628-1.398-9.991,2.102-15.716c3.513-5.745,2.92-14.003,4.112-21.163
			c0.571-3.427,1.107-6.86,1.692-10.493c6.763,0.855,8.12,5.95,10.896,9.395c3.477,4.314,5.858,9.47,12.926,9.467
			c2.311-0.001,4.739,3.312,6.913,5.326c5.124,4.749,9.743,10.132,15.269,14.334c8.167,6.21,13.985,4.631,18.043-4.899
			c3.771-8.856,6.713-18.077,9.768-27.222c3.233-9.678,6.167-19.457,9.608-30.389c7.771,5.445,14.593,10.225,22.611,15.843
			c8.049-11.974,15.364-22.855,22.96-34.156c3.147,1.93,5.56,3.409,7.975,4.89c6.26-3.31,7.812-9.391,10.333-14.682
			c1.717-3.603,3.091-6.927,6.888-9.342c2.789-1.774,4.356-5.654,6.139-8.783c2.637-4.628,4.742-9.574,7.575-14.068
			c1.06-1.681,3.525-2.475,5.35-3.673c1.227,2.114,3.178,4.124,3.497,6.367c0.408,2.862-0.56,5.908-0.831,8.883
			c-0.936,10.242-1.592,20.516-2.826,30.721c-0.687,5.675,1.316,8.889,7.71,9.749c-2.406,12.25-4.689,23.872-6.975,35.508
			c5.536,5.567,11.945,3.436,19.353,2.734c-0.508,8.464-2.186,16.342-4.743,24.012c-0.94,2.82-2.496,4.993-0.869,8.374
			c0.933,1.94,0.127,5.245-0.88,7.496c-4.206,9.408-8.775,18.655-13.232,27.95c-1.118,2.332-2.314,4.627-4.032,8.049
			c3.334,0.667,5.757,1.528,8.192,1.567c7.328,0.117,14.662-0.139,21.993-0.143c4.22-0.002,7.665,0.245,11.312,4.145
			c2.654,2.839,9.144,2.841,13.902,2.765c5.414-0.085,10.805-1.664,17.034-2.735c-1.41,8.304-7.897,10.467-12.026,14.171
			c-6.566,5.892-14.305,10.217-19.918,17.557c-3.22,4.21-9.12,6.423-13.924,9.355c-4.254,2.596-8.701,4.875-12.978,7.436
			c-1.396,0.836-3.443,1.979-3.633,3.221c-1.727,11.264-11.4,15.812-18.665,22.218c-12.133,10.699-22.944,22.489-29.816,37.169
			c-4.494,9.602-7.483,19.911-11.035,29.943c-0.271,0.765,0.352,1.845,0.607,2.994c26.179,0.676,51.624-0.616,76.201-11.608
			c10.574-4.73,23.167-4.948,35.281-7.301c1.629,5.483,3.006,10.115,4.731,15.918c15.152-2.741,29.815-5.184,44.374-8.146
			c4.8-0.976,8.791-2.153,8.958,5.283c6.719-1.65,12.805-3.131,18.881-4.646c1.291-0.322,2.663-1.313,3.808-1.077
			c11.873,2.446,19.167-5.175,26.907-11.927c0.685-0.598,1.759-0.75,3.707-1.533c0.369,2.424,1.539,4.848,0.816,6.382
			c-1.954,4.149-4.236,8.341-7.251,11.754c-6.132,6.942-12.885,13.331-19.277,20.047c-3.997,4.2-7.745,8.597-3.353,15.469
			c-7.113,4.851-13.631,9.876-20.694,13.959c-8.159,4.716-10.752,8.084-2.553,16.952c0.41,0.444,0.463,1.217,0.957,2.607
			c-1.834,0.947-3.725,2.002-5.679,2.921c-13.195,6.202-26.521,12.142-39.563,18.648c-7.698,3.841-8.481,5.991-4.206,13.351
			c3.934,6.772,9.15,12.8,14.308,19.848c-7.482,2.138-14.529,7.076-23.227,7.525c-5.032,0.26-9.284,1.437-13.684,4.735
			c-3.539,2.653-9.337,2.955-14.169,3.1c-15.903,0.476-30.613,5.925-45.608,10.217c-1.459,0.417-2.666,1.719-4.684,3.079
			c15.48,24.583,34.061,46.368,52.631,70.768c-4.46,0-6.653,0.35-8.69-0.065c-6.191-1.263-12.316-2.85-18.481-4.246
			c-1.598-0.362-4.058-1.288-4.75-0.591c-5.701,5.74-11.064,1.309-16.563-0.093c-1.595-0.407-3.299-0.377-4.95-0.572
			c-6.421-0.756-12.229-0.426-13.195,8.869c-3.864-1.506-6.901-2.61-9.874-3.864c-6.384-2.692-12.287-6.289-19.743-6.396
			c-3.652-0.053-7.225-3.126-10.896-4.685c-7.66-3.25-15.331-6.482-23.071-9.534c-1.774-0.699-3.85-0.636-6.909-1.09
			c-0.858,3.313-1.629,6.393-2.457,9.457c-1.538,5.692-3.718,6.826-8.414,4.132c-9.389-5.387-19.084-10.353-27.952-16.502
			c-9.002-6.242-17.793-13.068-25.526-20.789c-9.635-9.62-18.091-20.42-27.06-30.707c-1.702-1.952-3.42-3.89-5.844-6.644
			c-7.872,8.419-13.369,17.417-15.434,27.945c-3.459,17.635-6.449,35.381-8.987,53.173c-1.831,12.836-2.708,25.814-3.828,38.745
			c-1.172,13.54,1.548,26.49,6.284,39.121c1.597,4.258,4.284,8.455,1.651,13.936c-3.208,0.265-6.674,0.55-11.042,0.909
			c-5.56-12.361-8.747-25.145-7.442-38.663c2.912-30.155,6.333-60.261,9.311-90.41c1.558-15.775,5.374-30.808,12.887-44.829
			c0.469-0.874,0.862-1.816,1.105-2.774c0.153-0.6-0.042-1.288-0.146-3.04c-29.682,1.087-58.628-1.911-83.832-21.267
			c0.52-1.633,0.935-3.13,1.476-4.58c0.442-1.185,1.035-2.312,2.047-4.53c-5.263-3.3-10.153-6.616-15.276-9.52
			c-7.512-4.258-15.09-8.009-20.662-15.283c-2.761-3.604-8.29-5.087-13.224-7.905c2.067-4.617-0.017-7.951-3.95-11.301
			c-7.576-6.451-14.607-13.542-21.855-20.376c-0.72-0.679-2.019-1.459-1.976-2.125C16.721,351.622,6.163,349.046,2,342
			C2,339.333,2,336.667,2,334z"/>
		<path fill-rule="evenodd" clip-rule="evenodd" d="M2544.035,31.706c156.319,0,312.64-0.001,468.96,0.002
			c17.065,0,17.079,0.011,17.081,16.935c0.006,73.66,0.009,147.321-0.004,220.981c-0.003,16.089-0.243,16.349-16.053,16.346
			c-90.658-0.012-181.317-0.055-271.977-0.074c-16.094-0.003-16.125,0.024-16.12,15.983c0.093,274.309,0.2,548.619,0.282,822.929
			c0.006,19.71,1.845,19.271-18.781,19.265c-106.656-0.03-213.314-0.028-319.973-0.001c-20.037,0.005-19.473,0.697-19.471-19.97
			c0.023-272.643,0.02-545.286,0.01-817.929c-0.002-21.942,1.652-20.278-20.787-20.274c-90.992,0.013-181.983,0.056-272.976,0.077
			c-16.429,0.004-16.443-0.021-16.444-16.6c-0.006-73.66-0.006-147.321,0-220.981c0.001-16.666,0.017-16.685,16.292-16.686
			C2230.729,31.704,2387.381,31.706,2544.035,31.706z"/>
		<path fill-rule="evenodd" clip-rule="evenodd" d="M1485.473,1654.767c0-3.559,0-7.117,0-10.677
			c0-37.302-0.002-74.604,0.003-111.907c0-2.997-0.117-6.007,0.114-8.988c0.492-6.369,1.436-7.348,7.893-7.712
			c4.315-0.244,8.667-0.241,12.983-0.005c6.871,0.374,7.65,1.292,8.076,8.543c0.137,2.324,0.063,4.661,0.063,6.992
			c0.002,46.628,0.005,93.256-0.005,139.885c0,2.996-0.058,5.993-0.164,8.988c-0.139,3.948-2.194,6.322-6.167,6.372
			c-7.651,0.095-15.511,0.97-22.882-0.498c-4.725-0.94-9.349-4.88-12.962-8.523c-30.484-30.736-60.705-61.734-91.046-92.612
			c-11.671-11.878-23.427-23.673-35.206-35.444c-1.773-1.772-3.882-3.21-7.647-6.279c0,5.496,0,9.018,0,12.539
			c0,38.302,0.003,76.604-0.006,114.905c0,2.996-0.078,5.992-0.125,8.989c-0.068,4.376-2.166,6.913-6.656,6.983
			c-5.324,0.083-10.654,0.103-15.976-0.048c-3.968-0.112-6.042-2.391-6.201-6.35c-0.094-2.329-0.161-4.66-0.162-6.99
			c-0.009-47.96-0.023-95.921,0.004-143.881c0.009-13.609,0.07-13.78,14.089-13.635c26.083,0.271,18.248-3.204,36.254,14.936
			c38.709,38.997,77.114,78.297,115.553,117.562c2.535,2.589,4.302,5.93,6.427,8.92
			C1482.975,1656.144,1484.224,1655.455,1485.473,1654.767z"/>
		<path fill-rule="evenodd" clip-rule="evenodd" d="M1873.478,1600.511c0-24.316-0.049-48.633,0.021-72.949
			c0.033-11.521,0.586-12.108,11.607-12.153c18.986-0.076,37.995-0.558,56.954,0.171c22.388,0.861,43.255,7.186,61.529,20.722
			c15.653,11.595,24.75,27.241,29.886,45.9c9.703,35.251-10.709,73.8-39.629,89.147c-18.055,9.58-37.413,14-57.516,14.88
			c-17.621,0.771-35.302,0.342-52.954,0.196c-8.584-0.071-9.788-1.288-9.835-9.968c-0.137-25.314-0.049-50.631-0.049-75.946
			C1873.488,1600.511,1873.483,1600.511,1873.478,1600.511z M1904.259,1601.057c-0.021,0-0.041,0-0.063,0
			c0,2.993-0.005,5.986,0.001,8.979c0.027,14.966,0.05,29.932,0.093,44.897c0.012,4.188,0.348,8.53,5.864,8.643
			c17.927,0.367,36.041,1.735,53.248-4.938c13.642-5.29,25.238-13.403,32.452-26.664c21.377-39.29,0.249-84.755-43.823-92.916
			c-12.287-2.275-25.104-1.933-37.692-2.262c-9.351-0.245-9.993,0.647-10.05,10.383
			C1904.184,1565.138,1904.259,1583.098,1904.259,1601.057z"/>
		<path fill-rule="evenodd" clip-rule="evenodd" d="M921.797,1558.519c-7.255,4.765-15.228,5.491-23.073,5.933
			c-1.848,0.104-4.72-2.479-5.682-4.508c-13.548-28.584-39.256-31.07-66.036-30.642c-7.221,0.116-14.556,1.824-21.585,3.734
			c-25.904,7.04-41.528,25.869-45.361,52.5c-1.513,10.508-0.493,20.588,1.728,30.657c3.749,16.995,13.622,29.569,29.271,37.101
			c26.584,12.793,53.939,13.25,81.566,3.689c9.442-3.267,14.596-11.217,19.226-19.46c4.424-7.878,4.427-7.969,12.967-6.281
			c5.468,1.08,10.879,2.45,17.4,3.938c-0.909,3.684-1.252,6.579-2.324,9.173c-6.139,14.856-16.491,26.119-31.417,31.865
			c-11.401,4.39-23.417,8.33-35.467,9.645c-23.296,2.54-46.536,0.961-68.955-7.226c-34.466-12.586-56.23-43.529-56.343-80.56
			c-0.115-37.954,21.083-68.956,56.338-81.394c32.096-11.323,64.542-11.923,96.923-1.061c18.295,6.137,31.871,17.734,39.124,35.993
			C920.926,1553.703,921.196,1556.012,921.797,1558.519z"/>
		<path fill-rule="evenodd" clip-rule="evenodd" d="M1796.206,1678.605c-11.049,0-19.635-0.007-28.22,0.003
			c-4.886,0.005-6.82-3.498-8.593-7.192c-5.476-11.41-11.279-22.681-16.281-34.295c-2.783-6.462-6.677-8.874-13.721-8.759
			c-22.981,0.377-45.979,0.431-68.958-0.021c-7.659-0.15-11.479,3.009-14.19,9.649c-4.53,11.094-9.765,21.898-14.432,32.939
			c-2.384,5.641-6.096,8.193-12.311,7.852c-6.572-0.361-13.181-0.082-21.616-0.082c1.815-5.527,2.718-9.586,4.432-13.266
			c7.03-15.095,14.3-30.08,21.497-45.098c16.266-33.94,32.77-67.771,48.646-101.893c3.811-8.19,8.78-11.213,17.701-10.916
			c22.683,0.754,18.497-2.182,28.543,17.503c24.226,47.472,48.365,94.988,72.51,142.501
			C1792.669,1670.398,1793.867,1673.396,1796.206,1678.605z M1728.206,1607.146c-12.049-25.791-22.947-49.121-34.309-73.44
			c-11.155,24.729-21.806,48.34-33.116,73.416C1683.799,1607.81,1704.802,1607.82,1728.206,1607.146z"/>
		<path fill-rule="evenodd" clip-rule="evenodd" d="M1222.393,1686.252c-11.418,0-20.37,0.55-29.182-0.323
			c-2.767-0.274-6.054-3.908-7.557-6.807c-5.672-10.932-11.149-22.012-15.832-33.393c-3.385-8.226-8.215-11.509-17.379-11.231
			c-21.969,0.665-43.975,0.466-65.956,0.075c-7.09-0.126-10.871,2.257-13.476,8.899c-4.616,11.77-10.326,23.104-15.225,34.771
			c-2.345,5.584-5.721,8.632-12.036,8.284c-6.845-0.377-13.713-0.34-22.311-0.519c1.789-5.035,2.688-8.443,4.163-11.581
			c10.914-23.207,21.872-46.395,32.954-69.522c12.954-27.034,26.249-53.906,38.931-81.067c3.021-6.47,6.959-8.801,13.856-8.55
			c25.619,0.931,20.655-4.681,33.635,20.724c23.341,45.68,46.54,91.432,69.748,137.18
			C1218.475,1676.636,1219.819,1680.284,1222.393,1686.252z M1120.209,1541.321c-0.662-0.02-1.324-0.04-1.986-0.06
			c-7.236,25.453-22.094,47.729-30.827,72.858c13.846,2.29,59.506,1.65,66.435-0.892
			C1142.611,1589.232,1131.41,1565.277,1120.209,1541.321z"/>
		<path fill-rule="evenodd" clip-rule="evenodd" d="M2299.857,1685.649c-11.039,1.285-20.604,1.52-30.006,0.028
			c-2.477-0.393-5.023-4.132-6.418-6.898c-5.691-11.301-11.341-22.655-16.227-34.317c-3.207-7.653-8.061-10.092-16.169-9.915
			c-22.312,0.485-44.643,0.372-66.96,0.046c-6.627-0.097-10.316,2.054-12.815,8.344c-4.669,11.751-10.454,23.056-15.207,34.777
			c-2.654,6.547-6.736,9.525-13.712,8.795c-6.441-0.674-13.195,1.426-20.418-2.25c1.203-3.316,2.062-6.426,3.417-9.301
			c11.219-23.8,22.46-47.59,33.829-71.318c12.665-26.434,25.685-52.701,38.067-79.266c3.141-6.737,7.171-9.832,14.514-9.061
			c3.625,0.381,7.378,0.472,10.977-0.016c8.639-1.169,13.457,2.934,17.115,10.328c12.854,25.975,26.003,51.803,39.132,77.64
			c12.072,23.755,24.295,47.435,36.363,71.191C2296.922,1677.57,2297.98,1680.95,2299.857,1685.649z M2232.62,1614.827
			c-12.059-25.7-23.342-49.748-35.685-76.055c-7.949,27.929-22.793,50.215-31.804,76.055
			C2188.011,1614.827,2209.45,1614.827,2232.62,1614.827z"/>
		<path fill-rule="evenodd" clip-rule="evenodd" fill="transparent" d="M1110.718,601.19c-8.477,6.841-17.212,13.388-25.374,20.587
			c-14.977,13.209-29.613,26.804-44.394,40.235c-1.479,1.344-2.938,2.712-4.471,3.991c-3.288,2.74-6.542,3.102-9.67-0.29
			c-0.452-0.49-0.888-1.024-1.429-1.395c-3.433-2.351-7.29-6.999-10.261-6.494c-6.027,1.024-11.65,4.677-14.661,10.926
			c-3.317,6.885-6.945,13.62-10.236,20.517c-3.543,7.424-8.454,13.361-15.854,17.361c-4.026,2.176-7.259,5.821-11.288,7.989
			c-3.01,1.62-6.675,2.384-10.129,2.738c-6.21,0.636-12.484,0.619-18.723,1.01c-1.64,0.103-3.293,1.152-4.863,0.997
			c-7.996-0.794-14.918-0.435-19.043,8.49c-1.004,2.172-6.5,2.809-10.031,3.17c-11.248,1.154-22.549,1.771-33.817,2.74
			c-9.881,0.85-19.746,1.896-30.016,2.894c-0.229,2.071-0.625,3.661-0.543,5.226c0.657,12.615,1.335,25.229,2.14,37.834
			c1.102,17.257,2.43,34.5,3.446,51.762c0.587,9.97,0.995,19.967,0.916,29.947c-0.017,2.1-2.072,4.797-3.956,6.148
			c-4.86,3.487-10.049,6.559-15.3,9.444c-4.37,2.4-7.478,5.509-8.155,10.598c-0.828,6.221-4.629,9.701-10.59,10.052
			c-11.583,0.683-15.849,8.308-18.1,18.046c-2.025,8.761-3.475,17.673-5.909,26.313c-2.24,7.953-4.996,15.838-8.384,23.365
			c-2.548,5.659-3.498,10.989-3.181,17.268c0.737,14.604,1.147,29.324,0.125,43.888c-0.964,13.72-1.399,27.264,1.146,40.782
			c0.734,3.899,2.085,7.702,3.37,11.476c1.697,4.98,4.877,8.363,10.054,10.291c6.855,2.554,13.261,6.379,20.189,8.657
			c6.535,2.149,13.441,3.774,20.282,4.264c13.282,0.951,16.927,6.855,11.126,19.079c-1.522,3.207-2.803,6.79-3.052,10.282
			c-0.406,5.699-3.569,8.182-8.485,9.629c-13.067,3.848-26.36,3.904-39.597,1.715c-9.783-1.619-19.134-4.564-29.488-3.624
			c-6.2,0.563-12.864-2.764-19.156-4.839c-4.599-1.517-6.978-5.571-6.755-10.149c0.351-7.226,0.578-14.727,2.732-21.517
			c1.911-6.021,2.786-11.485,1.044-17.471c-3.629-12.474-6.792-25.099-10.867-37.423c-5.782-17.483-7.137-35.173-4.165-53.25
			c1.78-10.819,4.393-21.543,5.49-32.425c1.835-18.214,3.068-36.557-0.608-54.706c-0.745-3.678-2.58-7.959-5.341-10.208
			c-4.021-3.274-4.523-6.969-4.604-11.392c-0.157-8.6,0.598-17.268-6.553-24.301c-1.87-1.839-1.67-6.304-1.572-9.537
			c0.544-17.993,1.523-35.945,7.265-53.252c0.676-2.038,0.572-4.334,0.826-6.475c-11.861,2.337-22.969,5.255-34.26,6.491
			c-7.442,0.814-15.19-0.491-22.712-1.501c-2.295-0.309-4.376-2.694-6.411-4.31c-1.544-1.226-2.691-3.674-4.305-3.965
			c-8.05-1.451-9.101-7.651-10.494-13.975c-7.324-33.246-8.423-66.637-2.789-100.246c1.21-7.22,1.811-14.541,2.977-21.77
			c2.627-16.287,10.576-27.715,27.94-30.946c10.139-1.886,20.065-4.939,30.219-6.72c9.93-1.741,19.769-1.966,28.789,4.429
			c4.667,3.309,9.525,1.081,10.19-4.664c0.415-3.59-0.434-8.217-2.523-11.043c-6.701-9.062-14.333-17.429-21.439-26.199
			c-11.168-13.785-17.456-29.18-13.226-47.123c1.084-4.598,3.967-9.27,7.256-12.74c5.919-6.247,12.652-11.752,19.264-17.307
			c7.007-5.887,15.884-7.498,24.408-7.618c16.065-0.226,30.931,4.093,42.817,15.928c7.454,7.422,11.739,16.294,11.701,26.735
			c-0.035,9.849,1.972,19.079,5.225,28.301c5.693,16.136-1.024,36.686-14.891,47.116c-6.115,4.6-7.139,8.783-3.718,15.48
			c0.603,1.181,1.299,2.354,2.149,3.364c11.019,13.086,19.414,27.746,27.185,42.951c4.693,9.183,14.782,12.978,23.279,18.077
			c1.013,0.608,2.603,0.4,3.915,0.34c19.61-0.89,39.229-2.663,58.823-2.417c11.508,0.145,22.375,1.038,31.185-7.967
			c11.716-1.19,20.095-6.918,25.38-17.631c1.186-2.403,4.32-4.274,6.973-5.456c16.428-7.315,27.261-21.113,39.158-33.602
			c10.561-11.087,20.737-22.55,30.86-34.044c14.302-16.24,28.527-32.554,42.463-49.107c2.443-2.903,3.743-7.012,4.821-10.778
			c5.133-17.921,10.502-35.798,14.833-53.918c4.176-17.471,7.445-35.175,10.592-52.87c1.471-8.271,4.606-14.765,11.524-20.017
			c8.235-6.252,15.816-13.271,26.042-16.334c1.704-0.511,3.084-2.106,5.07-3.526c-3.789-5.178-8.733-3.819-13.039-3.625
			c-16.122,0.728-15.821,0.732-21.476-14.891c-2.501-6.91-3.235-15.043-11.257-19.202c-1.537-0.797-1.905-5.485-1.457-8.15
			c1.028-6.118,0.982-11.86-1.823-17.538c-0.854-1.728-1.355-3.896-1.213-5.802c0.563-7.596-1.981-12.811-8.47-17.637
			c-7.732-5.752-7.616-20.038,0.063-26.811c7.143-6.3,15.077-12.555,23.779-16.054c17.337-6.973,35.502-11.479,54.6-7.608
			c8.513,1.726,15.979,4.789,19.652,13.528c0.501,1.192,1.378,2.326,2.336,3.211c14.523,13.421,16.499,30.43,13.743,48.655
			c-1.14,7.536-3.08,14.947-4.401,22.46c-0.448,2.548-0.568,5.326-0.061,7.841c2.558,12.667,7.741,24.091,17.36,33.014
			c2.101,1.949,5.037,3.094,7.73,4.289c10.037,4.451,20.381,8.292,30.102,13.339c4.821,2.503,9.547,6.463,12.529,10.951
			c5.126,7.712,8.976,16.292,13.139,24.618c7.596,15.188,15.21,30.373,22.476,45.72c5.985,12.643,11.987,25.322,17.019,38.356
			c3.573,9.259,5.594,19.123,8.214,28.742c2.48,9.111,1.006,17.958-2.789,26.318c-11.427,25.171-23.007,50.274-34.742,75.302
			c-3.522,7.514-8.026,14.569-11.523,22.093c-1.461,3.144-2.322,7.052-1.964,10.454c0.763,7.229,2.516,14.351,3.836,21.522
			c0.361,1.961,0.857,3.935,0.906,5.912c0.686,27.957,1.615,55.914,1.819,83.875c0.116,15.955-1.138,31.915-1.472,47.878
			c-0.249,11.934-0.378,23.892,0.095,35.813c0.646,16.285,1.924,32.545,2.914,48.818c0.95,15.607,1.824,31.22,2.838,46.823
			c0.625,9.628,1.268,19.26,2.22,28.858c2.2,22.175,4.648,44.324,6.86,66.497c0.428,4.287-0.141,8.685,0.417,12.943
			c0.806,6.155-0.148,10.646-6.269,14.128c-5.3,3.017-6.212,7.579-2.884,12.963c2.895,4.684,6.981,8.872,11.269,12.395
			c6.001,4.93,11.374,10.318,9.221,18.435c-2.003,7.547-9.116,9.794-16.141,11.703c-11.337,3.082-22.458,1.724-33.618-0.619
			c-1.295-0.271-2.777-0.506-3.76-1.281c-7.453-5.884-15.328-11.384-21.919-18.13c-2.546-2.605-2.216-8.107-2.994-12.328
			c-0.599-3.249-0.478-6.688-1.492-9.775c-0.438-1.329-3.116-2.93-4.448-2.676c-1.38,0.263-3.294,2.599-3.327,4.065
			c-0.073,3.261,0.816,6.557,1.432,9.816c1.798,9.522-0.309,14.326-9.324,16.904c-14.784,4.229-29.726,7.429-44.896,0.63
			c-2.599-1.164-6.492-0.518-9.455,0.385c-18.488,5.633-37.158,6.275-56.214,3.614c-6.914-0.965-10.289-5.607-10.219-14.575
			c0.061-7.677,3.663-12.152,10.989-13.117c4.925-0.647,9.977-0.521,14.967-0.447c14.904,0.224,25.612-9.349,40.274-15.059
			c-3.861-2.433-5.377-3.558-7.037-4.397c-3.406-1.723-4.354-4.332-4.368-8.132c-0.034-9.288-0.327-18.6-1.085-27.855
			c-2.414-29.521-5.225-59.01-7.58-88.534c-0.714-8.952-0.039-18.014-0.715-26.971c-1.449-19.216-3.017-38.437-5.203-57.579
			c-1.583-13.852-4.492-27.548-6.353-41.375c-2.172-16.151-3.041-32.516-5.959-48.518c-3.109-17.048-6.799-33.861-6.727-51.376
			c0.033-7.868-2.253-15.79-3.865-23.61c-1.906-9.244-3.254-18.262,0.832-27.422c1.046-2.346,0.926-6.391-0.459-8.437
			c-5.627-8.309-4.139-17.15-3.281-26.111c1.547-16.165,2.932-32.345,4.385-48.519
			C1112.405,601.919,1111.562,601.554,1110.718,601.19z"/>
		<path fill-rule="evenodd" clip-rule="evenodd" fill="transparent" d="M2086.959,1391.96c3.72-8.099,7.55-16.147,11.139-24.303
			c15.567-35.374,31.208-70.718,46.462-106.227c2.94-6.846,6.998-9.899,14.402-9.356c5.968,0.438,11.998-0.066,17.99,0.162
			c7.385,0.282,8.362,1.413,8.763,8.994c0.105,1.995,0.046,3.999,0.046,5.999c0.002,46.663,0.003,93.325-0.006,139.988
			c0,2.665-0.057,5.332-0.156,7.995c-0.148,3.953-2.156,6.245-6.186,6.325c-4.994,0.1-9.995,0.111-14.988-0.019
			c-4.086-0.105-5.906-2.589-6.022-6.482c-0.089-2.997-0.14-5.997-0.141-8.995c-0.01-35.997-0.007-71.994-0.006-107.991
			c0-3.521,0-7.04,0-10.56c-0.817-0.215-1.634-0.429-2.451-0.644c-1.563,3.076-3.275,6.086-4.667,9.237
			c-16.554,37.487-33.009,75.019-49.605,112.486c-5.92,13.366-10.354,15.378-24.964,13.024c-5.705-0.92-7.391-5.148-9.228-9.414
			c-8.432-19.588-16.789-39.207-25.166-58.818c-8.639-20.224-17.242-40.462-25.938-60.662c-1.134-2.634-2.719-5.074-6.131-7.396
			c-0.114,3.428-0.326,6.855-0.329,10.283c-0.024,35.997-0.015,71.994-0.016,107.99c0,2.667,0.056,5.336-0.027,8
			c-0.276,8.901-1.133,9.774-9.678,10.129c-17.79,0.738-17.799,0.737-17.8-17.027c-0.005-45.33-0.004-90.66,0.002-135.989
			c0-2.999,0.07-5.999,0.073-8.998c0.006-4.854,2.274-7.46,7.269-7.453c9.332,0.011,18.665,0.101,27.995-0.036
			c6.209-0.09,8.66,4.017,10.685,8.837c5.808,13.824,11.646,27.636,17.455,41.458c11.233,26.725,22.43,53.464,33.717,80.164
			c1.385,3.275,3.23,6.354,4.863,9.525C2085.196,1392.112,2086.077,1392.036,2086.959,1391.96z"/>
		<path fill-rule="evenodd" clip-rule="evenodd" fill="transparent" d="M2485.363,1285.153c-4.23,9.303-8.541,18.57-12.682,27.913
			c-14.439,32.58-28.773,65.207-43.256,97.769c-4.535,10.197-15.967,14.83-26.26,9.978c-3.107-1.465-5.459-5.646-7.01-9.097
			c-6.824-15.189-13.24-30.563-19.783-45.878c-10.598-24.811-21.16-49.638-31.807-74.428c-1.014-2.363-2.518-4.517-4.152-7.397
			c-3.484,3.65-2.35,7.442-2.357,10.789c-0.092,37.317-0.047,74.635-0.064,111.953c-0.008,15.012-0.576,15.518-15.936,14.955
			c-8.705-0.318-9.969-1.265-9.986-9.844c-0.1-49.979-0.102-99.958,0.006-149.938c0.018-8.49,1.313-9.534,10.1-9.725
			c7.326-0.159,14.672,0.245,21.984-0.12c6.635-0.331,10.424,2.394,12.914,8.513c7.406,18.202,15.199,36.246,22.842,54.351
			c9.975,23.629,19.941,47.262,29.947,70.877c0.893,2.108,2.055,4.103,3.184,6.331c4.613-0.53,5.131-4.338,6.355-7.098
			c10.137-22.831,20.1-45.74,30.148-68.609c8.309-18.904,16.779-37.738,24.926-56.711c2.285-5.323,5.723-7.775,11.475-7.595
			c6.99,0.219,13.99,0.08,20.986,0.15c4.42,0.044,6.77,2.308,6.908,6.76c0.072,2.331,0.145,4.662,0.145,6.993
			c0.008,47.313,0.008,94.627,0,141.94c0,2.331-0.074,4.663-0.15,6.993c-0.15,4.518-2.697,6.206-7.014,6.701
			c-16.961,1.947-18.795,0.377-18.799-17.058c-0.004-35.985-0.002-71.97-0.002-107.955c0-3.621,0-7.242,0-10.864
			C2487.139,1285.587,2486.252,1285.37,2485.363,1285.153z"/>
		<path fill-rule="evenodd" clip-rule="evenodd" fill="transparent" d="M606.048,1348.936c22.397,11.146,35.801,31.338,50.908,49.805
			c4.424,5.408,8.715,10.931,12.92,16.512c1.526,2.025,2.623,4.374,4.59,7.724c-10.6,1.578-20.14,1.604-29.5,0.204
			c-3.061-0.457-6.125-3.784-8.343-6.491c-11.175-13.642-21.947-27.615-33.129-41.252c-4.206-5.129-8.71-10.186-13.829-14.354
			c-8.377-6.819-17.821-11.547-29.148-11.327c-9.652,0.188-19.312-0.097-28.966-0.004c-10.899,0.104-11.705,0.925-11.771,12.192
			c-0.092,15.648-0.021,31.298-0.035,46.947c-0.002,2.663-0.066,5.326-0.122,7.988c-0.092,4.386-2.281,6.414-6.711,7.004
			c-18.502,2.465-20.867,0.518-20.868-18.004c-0.003-44.284-0.001-88.568,0.001-132.852c0-2.664-0.086-5.334,0.062-7.99
			c0.413-7.423,1.55-8.961,8.857-8.976c35.625-0.073,71.266-0.475,106.87,0.45c15.368,0.399,30.291,4.25,41.252,17.037
			c17.89,20.87,13.402,49.769-10.75,62.905c-7.758,4.22-16.774,6.144-25.25,9.015c-2.114,0.716-4.363,1.031-6.549,1.531
			C606.374,1347.646,606.211,1348.29,606.048,1348.936z M562.533,1273.946c0-0.02,0-0.039,0-0.058
			c-10.634,0-21.271-0.116-31.903,0.034c-9.671,0.136-10.662,1.169-10.776,11.113c-0.13,11.297-0.131,22.599,0,33.896
			c0.114,9.866,1.146,10.973,10.843,11.063c15.951,0.146,31.909,0.299,47.853-0.05c8.6-0.188,17.215-1.126,25.753-2.255
			c7.788-1.031,14.468-4.571,19.837-10.525c9.907-10.986,8.5-26.064-3.461-34.766c-8.4-6.111-18.155-8.081-28.24-8.387
			C582.479,1273.71,572.503,1273.946,562.533,1273.946z"/>
		<path fill-rule="evenodd" clip-rule="evenodd" fill="transparent" d="M1526.718,1347.442c0.361,0.953,0.392,1.431,0.604,1.533
			c20.907,10.096,33.922,28.41,47.754,45.862c6.987,8.815,13.894,17.694,21.002,26.756c-6.088,2.301-27.124,3.718-30.853,1.493
			c-3.315-1.978-6.194-4.977-8.68-8.006c-12.245-14.919-24.275-30.013-36.418-45.015c-10.647-13.154-24.005-20.75-41.382-20.369
			c-9.321,0.204-18.652-0.089-27.975,0.058c-9.259,0.145-10.474,1.237-10.59,10.37c-0.189,14.984-0.064,29.974-0.073,44.961
			c-0.001,2.664,0.02,5.329-0.024,7.993c-0.027,1.663,0.047,3.365-0.276,4.979c-1.033,5.153-2.73,5.885-12.861,5.88
			c-10.086-0.006-11.841-0.731-12.739-5.99c-0.444-2.601-0.303-5.313-0.303-7.974c-0.015-46.628-0.011-93.255-0.009-139.882
			c0-1.665-0.049-3.335,0.055-4.995c0.463-7.384,1.631-8.983,8.895-9.001c34.969-0.088,69.945-0.283,104.902,0.4
			c8.799,0.172,17.921,2.411,26.228,5.498c20.729,7.702,32.066,30.887,25.565,51.107c-4.26,13.247-13.748,21.934-26.544,26.656
			C1544.628,1342.847,1535.849,1344.817,1526.718,1347.442z M1481.171,1330.027c7.992,0,15.984,0.002,23.976-0.002
			c0.999-0.001,2.018,0.096,2.994-0.064c8.512-1.392,17.263-2.006,25.463-4.456c11.314-3.38,18.409-13.322,18.514-23.509
			c0.115-11.255-6.56-20.308-18.616-24.363c-5.01-1.685-10.336-3.27-15.548-3.367c-22.635-0.424-45.282-0.419-67.922-0.262
			c-6.703,0.047-8.066,1.591-8.208,8.539c-0.257,12.648-0.247,25.309-0.043,37.959c0.128,7.984,1.435,9.271,9.422,9.458
			C1461.187,1330.194,1471.181,1330.017,1481.171,1330.027z"/>
		<path fill-rule="evenodd" clip-rule="evenodd" fill="transparent" d="M1259.823,1306.59c-0.809-1.231-1.916-2.501-2.566-3.974
			c-7.211-16.308-20.255-25.761-37.16-28.853c-21.876-4-43.697-4.022-64.506,6.181c-16.695,8.187-26.882,21.416-31.822,38.956
			c-3.68,13.065-3.733,26.291-0.704,39.521c4.688,20.472,17.129,34.335,36.548,41.739c31.407,11.975,61.992,9.17,91.896-5.629
			c6.175-3.056,9.273-7.104,8.714-14.04c-0.293-3.642,0.009-7.329-0.056-10.994c-0.188-10.624-1.008-11.558-11.307-11.671
			c-11.33-0.126-22.663-0.034-33.996-0.039c-2.333-0.001-4.669,0.06-6.998-0.031c-8.395-0.327-9.697-1.739-9.561-10.202
			c0.126-7.844,1.287-9.285,9.416-9.336c23.663-0.147,47.328-0.154,70.991,0.017c7.895,0.057,9.068,1.363,9.167,9.607
			c0.18,14.996-0.12,29.999,0.131,44.993c0.104,6.152-2.56,9.981-7.732,12.769c-21.991,11.85-45.041,20.332-70.331,20.311
			c-13.942-0.013-28.108-0.124-41.775-2.492c-24.573-4.259-46.264-14.479-61.445-35.675c-21.803-30.439-18.623-77.327,6.91-104.646
			c10.31-11.03,22.324-18.95,36.593-23.413c31.756-9.932,63.52-10.645,95.185,0.55c16.214,5.732,27.947,16.463,35.466,31.855
			c4.017,8.224,3.097,10.059-6.021,12.235c-3.889,0.929-7.797,1.786-11.721,2.549
			C1262.213,1307.059,1261.186,1306.726,1259.823,1306.59z"/>
		<path fill-rule="evenodd" clip-rule="evenodd" fill="transparent" d="M879.887,1425.949c-26.982,1.478-50.652-5.453-70.981-21.543
			c-23.503-18.604-32.562-43.722-30.045-73.313c3.704-43.536,37.642-69.313,72.15-75.966c25.121-4.844,49.763-4.072,73.698,5.003
			c28.307,10.73,48.006,29.951,53.736,60.555c4.909,26.215,1.553,51.24-16.119,72.571c-11.338,13.686-26.177,22.492-43.035,27.729
			C906.172,1425.061,892.688,1427.041,879.887,1425.949z M806.933,1340.112c0.305,0.045,0.611,0.09,0.916,0.134
			c0,2.665-0.188,5.345,0.03,7.991c1.719,20.89,10.468,37.5,29.081,48.328c23.146,13.465,47.538,14.986,72.24,6.264
			c20.603-7.275,35.074-21.4,40.369-43.447c3.337-13.896,2.937-27.683-0.966-41.46c-4.406-15.553-13.638-27.518-27.523-35.285
			c-26.006-14.548-52.878-14.455-79.668-2.191c-16.024,7.336-26.667,19.788-30.806,37.104
			C808.837,1324.941,808.125,1332.584,806.933,1340.112z"/>
		<path fill-rule="evenodd" clip-rule="evenodd" fill="transparent" d="M2642.279,1336.387c0.002-23.979-0.043-47.96,0.02-71.939
			c0.031-11.547,0.633-12.231,11.559-12.246c43.629-0.061,87.259-0.063,130.889,0.008c9.853,0.017,14.281,6.748,10.232,15.685
			c-0.771,1.702-3.305,3.175-5.283,3.628c-2.861,0.654-5.957,0.337-8.953,0.338c-31.64,0.014-63.279,0.007-94.92,0.013
			c-2.664,0-5.328,0.063-7.992,0.073c-4.741,0.019-7.669,2.09-7.69,7.104c-0.054,12.653-0.061,25.307,0.013,37.96
			c0.024,4.33,2.245,6.832,6.73,6.976c2.662,0.086,5.326,0.155,7.989,0.155c29.309,0.012,58.617,0.002,87.926,0.017
			c2.995,0.002,6.044-0.19,8.967,0.306c1.765,0.299,3.979,1.34,4.883,2.756c4.802,7.527,0.021,16.477-8.87,16.512
			c-30.307,0.119-60.615,0.053-90.923,0.063c-2.997,0.001-6.009-0.129-8.988,0.11c-6.083,0.489-7.604,1.722-7.727,8.025
			c-0.271,13.982-0.267,27.977-0.008,41.959c0.116,6.264,1.647,7.504,7.745,8.038c2.646,0.231,5.325,0.112,7.989,0.113
			c32.306,0.006,64.612,0.003,96.918,0.006c2.665,0,5.332-0.048,7.993,0.052c3.308,0.124,7.629-0.229,8.251,3.828
			c0.674,4.395-0.12,9.085-0.818,13.561c-0.138,0.878-2.715,1.736-4.258,1.951c-2.62,0.366-5.313,0.271-7.977,0.271
			c-42.964,0.013-85.927,0.025-128.892-0.001c-14.385-0.009-14.77-0.385-14.795-14.38
			C2642.248,1383.681,2642.277,1360.034,2642.279,1336.387z"/>
		<path fill-rule="evenodd" clip-rule="evenodd" fill="transparent" d="M166.274,1332.957c0.002-24.316-0.05-48.633,0.026-72.949
			c0.035-11.186,0.656-11.79,11.993-11.817c26.648-0.063,53.309-0.501,79.938,0.209c11.878,0.316,24.023,1.81,35.471,4.901
			c26.678,7.203,40.018,32.108,32.19,58.512c-3.912,13.193-12.79,22.41-25.177,28.152c-11.987,5.558-24.837,7.603-37.888,7.849
			c-18.981,0.356-37.972,0.103-56.958,0.229c-10.966,0.073-11.792,0.932-11.858,12.134c-0.092,15.655,0.064,31.312-0.078,46.966
			c-0.085,9.419-1.077,10.266-10.277,10.564c-16.927,0.549-17.372,0.131-17.381-16.797
			C166.262,1378.259,166.271,1355.607,166.274,1332.957z M234.751,1267.958c0-0.023,0-0.047,0-0.071
			c-9.982,0-19.966-0.11-29.947,0.032c-9.374,0.134-10.56,1.19-10.685,10.221c-0.184,13.307-0.192,26.621,0.006,39.928
			c0.133,8.983,1.345,10.104,10.76,10.153c18.632,0.099,37.278,0.335,55.894-0.249c6.838-0.214,13.814-1.961,20.366-4.111
			c11.761-3.859,17.705-12.988,18.139-24.949c0.418-11.526-4.664-21.063-15.477-25.76c-6.551-2.846-13.966-4.347-21.125-4.99
			C253.44,1267.33,244.067,1267.958,234.751,1267.958z"/>
		<path fill-rule="evenodd" clip-rule="evenodd" fill="transparent" d="M1893.83,1421.538c-10.346,0-18.267,0.063-26.186-0.023
			c-4.856-0.053-6.704-3.773-8.447-7.439c-5.292-11.131-10.874-22.141-15.692-33.473c-3.291-7.739-8.061-11.063-16.743-10.867
			c-22.647,0.508-45.315,0.342-67.971,0.074c-6.89-0.081-11.013,2.058-13.658,8.824c-4.605,11.775-10.409,23.075-15.247,34.767
			c-2.344,5.663-5.705,8.794-11.979,8.298c-6.128-0.483-12.533,1.359-19.358-2.199c1.075-3.028,1.797-5.835,3.022-8.399
			c23.421-48.989,47.077-97.867,70.202-146.996c4.09-8.688,9.104-12.537,18.972-12.146c19.461,0.772,16.664-0.96,24.953,15.287
			c17.26,33.832,34.476,67.687,51.773,101.499c7.13,13.938,14.463,27.772,21.616,41.699
			C1890.549,1413.288,1891.622,1416.333,1893.83,1421.538z M1828.689,1350.365c-12.117-25.914-23.826-50.952-35.975-76.934
			c-11.727,26.442-22.798,51.407-33.926,76.502C1767.641,1352.688,1817.87,1352.972,1828.689,1350.365z"/>
		<path fill-rule="evenodd" clip-rule="evenodd" fill="transparent" d="M1904.259,1601.057c0-17.959-0.075-35.919,0.03-53.877
			c0.057-9.735,0.699-10.628,10.05-10.383c12.588,0.329,25.405-0.014,37.692,2.262c44.072,8.161,65.2,53.626,43.823,92.916
			c-7.214,13.261-18.811,21.374-32.452,26.664c-17.207,6.673-35.321,5.305-53.248,4.938c-5.517-0.112-5.853-4.454-5.864-8.643
			c-0.043-14.966-0.065-29.932-0.093-44.897c-0.006-2.993-0.001-5.986-0.001-8.979
			C1904.218,1601.057,1904.238,1601.057,1904.259,1601.057z"/>
		<path fill-rule="evenodd" clip-rule="evenodd" fill="transparent" d="M1728.206,1607.146c-23.404,0.675-44.407,0.664-67.425-0.024
			c11.311-25.076,21.961-48.688,33.116-73.416C1705.259,1558.024,1716.157,1581.354,1728.206,1607.146z"/>
		<path fill-rule="evenodd" clip-rule="evenodd" fill="transparent" d="M1120.209,1541.321c11.201,23.956,22.402,47.911,33.622,71.907
			c-6.929,2.542-52.588,3.182-66.435,0.892c8.733-25.129,23.591-47.405,30.827-72.858
			C1118.885,1541.281,1119.547,1541.302,1120.209,1541.321z"/>
		<path fill-rule="evenodd" clip-rule="evenodd" fill="transparent" d="M2232.62,1614.827c-23.17,0-44.609,0-67.488,0
			c9.011-25.84,23.854-48.126,31.804-76.055C2209.278,1565.079,2220.562,1589.127,2232.62,1614.827z"/>
		<path fill-rule="evenodd" clip-rule="evenodd" d="M562.533,1273.946c9.97,0,19.946-0.236,29.907,0.066
			c10.085,0.306,19.84,2.275,28.24,8.387c11.961,8.701,13.368,23.779,3.461,34.766c-5.369,5.954-12.049,9.494-19.837,10.525
			c-8.538,1.129-17.153,2.066-25.753,2.255c-15.944,0.349-31.902,0.196-47.853,0.05c-9.697-0.09-10.729-1.196-10.843-11.063
			c-0.131-11.298-0.13-22.6,0-33.896c0.114-9.944,1.105-10.978,10.776-11.113c10.632-0.15,21.269-0.034,31.903-0.034
			C562.533,1273.907,562.533,1273.927,562.533,1273.946z"/>
		<path fill-rule="evenodd" clip-rule="evenodd" d="M1481.171,1330.022c-9.99-0.006-19.984,0.172-29.968-0.063
			c-7.987-0.188-9.293-1.474-9.422-9.458c-0.204-12.65-0.214-25.311,0.043-37.959c0.142-6.948,1.505-8.492,8.208-8.539
			c22.64-0.157,45.287-0.162,67.922,0.262c5.212,0.098,10.538,1.683,15.548,3.367c12.057,4.056,18.731,13.108,18.616,24.363
			c-0.104,10.187-7.199,20.129-18.514,23.509c-8.2,2.45-16.951,3.064-25.463,4.456c-0.976,0.16-1.995,0.063-2.994,0.064
			C1497.155,1330.029,1489.163,1330.027,1481.171,1330.022z"/>
		<path fill-rule="evenodd" clip-rule="evenodd" d="M806.933,1340.112c1.191-7.528,1.904-15.171,3.671-22.563
			c4.139-17.316,14.782-29.769,30.806-37.104c26.791-12.264,53.663-12.356,79.668,2.191c13.885,7.768,23.117,19.732,27.523,35.285
			c3.903,13.777,4.304,27.563,0.966,41.46c-5.295,22.047-19.766,36.172-40.369,43.447c-24.702,8.723-49.093,7.201-72.24-6.264
			c-18.613-10.828-27.362-27.438-29.081-48.328c-0.218-2.646-0.03-5.326-0.03-7.991
			C807.544,1340.202,807.238,1340.157,806.933,1340.112z"/>
		<path fill-rule="evenodd" clip-rule="evenodd" d="M234.751,1267.958c9.316,0,18.689-0.628,27.932,0.203
			c7.158,0.644,14.573,2.145,21.125,4.99c10.813,4.696,15.896,14.233,15.477,25.76c-0.434,11.961-6.378,21.09-18.139,24.949
			c-6.552,2.15-13.528,3.897-20.366,4.111c-18.616,0.584-37.262,0.348-55.894,0.249c-9.415-0.05-10.626-1.17-10.76-10.153
			c-0.198-13.307-0.189-26.621-0.006-39.928c0.125-9.03,1.311-10.087,10.685-10.221c9.98-0.143,19.964-0.032,29.947-0.032
			C234.751,1267.911,234.751,1267.935,234.751,1267.958z"/>
		<path fill-rule="evenodd" clip-rule="evenodd" d="M1828.689,1350.365c-10.819,2.606-61.049,2.323-69.9-0.432
			c11.128-25.095,22.199-50.06,33.926-76.502C1804.863,1299.413,1816.572,1324.451,1828.689,1350.365z"/>
	</g>
</g>
</svg>
