<?xml version="1.0" encoding="utf-8"?>
<!-- Generator: Adobe Illustrator 16.0.0, SVG Export Plug-In . SVG Version: 6.00 Build 0)  -->
<!DOCTYPE svg PUBLIC "-//W3C//DTD SVG 1.1//EN" "http://www.w3.org/Graphics/SVG/1.1/DTD/svg11.dtd">
<svg version="1.1" id="Layer_1" xmlns="http://www.w3.org/2000/svg" xmlns:xlink="http://www.w3.org/1999/xlink" x="0px" y="0px"
	 width="160px" height="115px" viewBox="0 0 160 115" enable-background="new 0 0 160 115" xml:space="preserve">
<g enable-background="new    ">
	<path fill="#010101" d="M16.945,13.088c0.816,0,1.296,0.192,1.632,0.48c0.096,0.048,0.144,0.144,0.144,0.24
		c0,0.864-0.912,2.112-1.68,2.112c-0.192,0-0.432-0.048-0.672-0.144c-0.24-0.144-0.672-0.192-1.104-0.192
		c-3.552,0-7.152,7.585-9.073,13.249c-0.384,1.2-1.152,4.129-1.392,5.281c-0.144,0.575-0.384,0.863-1.008,0.863l-1.776,0.097
		c-0.144,0-0.24-0.145-0.192-0.288c0.432-2.593,1.2-7.104,1.872-10.85c0.528-3.072,1.152-6.96,1.392-8.4
		c0.096-0.72-0.144-0.912-0.48-0.912c-0.432,0-1.152,0.192-1.728,0.432c-0.24,0.048-0.528-0.192-0.528-0.432
		c0-0.096,0.048-0.096,0.144-0.144c1.104-0.624,3.792-1.392,5.761-1.392c0.672,0,0.912,0.48,0.72,1.296
		c-0.432,2.064-1.488,6.48-2.16,9.504c-0.096,0.433-0.24,0.96-0.336,1.345h0.192c0.192-0.433,0.384-0.912,0.576-1.345
		c1.68-4.128,5.137-10.801,9.649-10.801H16.945z"/>
	<path fill="#010101" d="M31.969,31.714c0,0.191,0,0.479-0.144,0.576c-1.104,0.72-3.168,1.872-4.944,2.544
		c-0.624,0.191-1.68,0.432-3.504,0.432c-3.888,0-6.577-2.063-6.577-6.433c0-6.864,5.425-15.745,12.193-15.745
		c3.408,0,5.136,1.968,5.136,4.272c0,2.496-1.776,4.752-4.656,5.904c-2.4,0.912-5.425,1.393-8.449,1.152
		c-0.24,1.008-0.48,2.544-0.48,3.696c0,3.601,1.872,5.568,4.8,5.568c1.008,0,2.16-0.24,2.832-0.479
		c1.008-0.288,2.592-1.057,3.648-1.681c0.096-0.048,0.144,0.048,0.144,0.145V31.714z M28.177,14c-2.976,0-5.809,4.272-6.96,9.553
		c2.16,0.192,4.272-0.288,5.856-1.104c2.064-0.961,3.6-2.929,3.6-5.137c0-1.729-0.672-3.265-2.448-3.265L28.177,14z"/>
	<path fill="#010101" d="M39.456,35.266c-3.024,0-4.368-0.768-4.368-2.592c0.048-0.769,0.24-1.632,0.48-2.112
		c0.096-0.24,0.432-0.336,0.672-0.336c0.144,0,0.192,0.048,0.192,0.144c0.24,2.4,1.68,3.889,4.032,3.889
		c3.312,0,5.568-1.92,5.521-4.416c0-2.16-1.729-3.457-4.225-4.705c-2.64-1.344-4.32-2.928-4.32-5.136
		c0-3.745,4.513-6.913,9.073-6.913c2.736,0,3.937,0.912,3.937,2.592c0,0.672-0.192,1.44-0.48,1.968
		c-0.096,0.192-0.384,0.24-0.72,0.24c-0.096,0-0.144,0-0.144-0.096c-0.24-2.064-1.44-3.745-3.36-3.745
		c-3.12,0-4.896,2.16-4.896,4.225c0,1.92,1.344,3.072,3.552,4.32c2.785,1.536,4.608,3.072,4.608,5.568
		c0,4.225-4.56,7.104-9.504,7.104H39.456z"/>
	<path fill="#010101" d="M67.824,31.714c0,0.191,0,0.479-0.144,0.576c-1.104,0.72-3.168,1.872-4.944,2.544
		c-0.624,0.191-1.68,0.432-3.504,0.432c-3.888,0-6.577-2.063-6.577-6.433c0-6.864,5.424-15.745,12.193-15.745
		c3.408,0,5.136,1.968,5.136,4.272c0,2.496-1.776,4.752-4.656,5.904c-2.4,0.912-5.425,1.393-8.449,1.152
		c-0.24,1.008-0.48,2.544-0.48,3.696c0,3.601,1.872,5.568,4.8,5.568c1.008,0,2.16-0.24,2.832-0.479
		c1.008-0.288,2.592-1.057,3.648-1.681c0.096-0.048,0.144,0.048,0.144,0.145V31.714z M64.032,14c-2.976,0-5.809,4.272-6.96,9.553
		c2.16,0.192,4.272-0.288,5.856-1.104c2.064-0.961,3.601-2.929,3.601-5.137c0-1.729-0.672-3.265-2.448-3.265L64.032,14z"/>
	<path fill="#010101" d="M87.456,13.088c0.815,0,1.296,0.192,1.632,0.48c0.096,0.048,0.144,0.144,0.144,0.24
		c0,0.864-0.912,2.112-1.68,2.112c-0.192,0-0.432-0.048-0.672-0.144c-0.24-0.144-0.672-0.192-1.104-0.192
		c-3.552,0-7.152,7.585-9.073,13.249c-0.384,1.2-1.152,4.129-1.392,5.281c-0.144,0.575-0.384,0.863-1.008,0.863l-1.776,0.097
		c-0.144,0-0.24-0.145-0.192-0.288c0.432-2.593,1.2-7.104,1.872-10.85c0.528-3.072,1.152-6.96,1.392-8.4
		c0.096-0.72-0.144-0.912-0.48-0.912c-0.432,0-1.152,0.192-1.728,0.432c-0.24,0.048-0.528-0.192-0.528-0.432
		c0-0.096,0.048-0.096,0.144-0.144c1.104-0.624,3.792-1.392,5.761-1.392c0.672,0,0.912,0.48,0.72,1.296
		c-0.432,2.064-1.488,6.48-2.16,9.504c-0.096,0.433-0.24,0.96-0.336,1.345h0.192c0.192-0.433,0.384-0.912,0.576-1.345
		c1.68-4.128,5.137-10.801,9.649-10.801H87.456z"/>
	<path fill="#010101" d="M98.542,33.394c0.24-0.479,0.48-1.008,0.721-1.44c2.064-3.936,5.28-10.656,6.721-14.737
		c0.336-0.864,0.768-2.208,0.815-2.736c0-0.192,0.097-0.288,0.24-0.432c0.576-0.432,1.969-0.96,2.784-0.96
		c0.192,0,0.288,0.144,0.288,0.336c0,0.528-0.479,1.776-1.248,3.121c-2.16,3.984-8.112,14.881-10.033,17.809
		c-0.336,0.48-0.479,0.624-1.968,0.672h-1.104c-0.144,0-0.239-0.096-0.239-0.191c-0.721-3.601-2.017-14.497-2.593-19.346
		c-0.096-0.576-0.288-0.864-0.624-0.864c-0.432,0-1.056,0.144-1.584,0.336c-0.288,0.096-0.528-0.192-0.528-0.384
		c0-0.096,0.048-0.096,0.145-0.144c1.056-0.576,3.648-1.344,5.568-1.344c0.624,0,0.816,0.48,0.864,1.2
		c0.239,5.137,1.008,13.297,1.439,17.762c0,0.384,0.049,0.864,0.097,1.344H98.542z"/>
	<path fill="#010101" d="M124.799,31.714c0,0.191,0,0.479-0.145,0.576c-1.104,0.72-3.168,1.872-4.944,2.544
		c-0.624,0.191-1.68,0.432-3.504,0.432c-3.889,0-6.576-2.063-6.576-6.433c0-6.864,5.424-15.745,12.192-15.745
		c3.408,0,5.137,1.968,5.137,4.272c0,2.496-1.776,4.752-4.656,5.904c-2.4,0.912-5.425,1.393-8.449,1.152
		c-0.239,1.008-0.479,2.544-0.479,3.696c0,3.601,1.872,5.568,4.8,5.568c1.009,0,2.16-0.24,2.833-0.479
		c1.008-0.288,2.592-1.057,3.647-1.681c0.097-0.048,0.145,0.048,0.145,0.145V31.714z M121.007,14c-2.977,0-5.809,4.272-6.961,9.553
		c2.16,0.192,4.272-0.288,5.856-1.104c2.064-0.961,3.601-2.929,3.601-5.137c0-1.729-0.672-3.265-2.448-3.265L121.007,14z"/>
</g>
<g enable-background="new    ">
	<path fill="#010101" d="M138.91,4.88c0,2.016-1.536,3.648-3.937,3.648c-2.304,0-3.84-1.632-3.792-3.648
		c-0.048-2.112,1.488-3.696,3.84-3.696C137.374,1.184,138.862,2.768,138.91,4.88z M131.373,34.882V11.408h7.297v23.474H131.373z"/>
	<path fill="#010101" d="M152.686,4.688v6.721h5.232v5.376h-5.232v8.497c0,2.832,0.672,4.128,2.881,4.128
		c0.912,0,1.632-0.096,2.16-0.191l0.047,5.521c-0.959,0.384-2.688,0.624-4.752,0.624c-2.352,0-4.32-0.816-5.473-2.017
		c-1.344-1.393-2.016-3.648-2.016-6.961v-9.601h-3.121v-5.376h3.121V6.32L152.686,4.688z"/>
</g>
<g>
	<g>
		<path fill="#010101" d="M84.291,101.38c11.066,0,20.068-9.001,20.068-20.067s-9.002-20.07-20.068-20.07
			c-11.065,0-20.068,9.003-20.068,20.07C64.223,92.379,73.224,101.38,84.291,101.38z"/>
		<path fill="#010101" d="M84.291,106.766c14.059,0,25.453-11.396,25.453-25.452c0-14.06-11.395-25.455-25.453-25.455
			c-14.058,0-25.453,11.396-25.453,25.455C58.838,95.369,70.233,106.766,84.291,106.766z M84.291,59.759
			c11.883,0,21.555,9.671,21.555,21.555c0,11.883-9.67,21.553-21.555,21.553c-11.884,0-21.554-9.67-21.554-21.553
			C62.737,69.43,72.407,59.759,84.291,59.759z"/>
		<path fill="#010101" d="M123.889,109.134l-1.486-57.128c0-1.23-0.996-2.228-2.227-2.228c-0.33,0-0.639,0.075-0.918,0.205v-0.021
			c0,0-0.059,0.037-0.143,0.093c-0.213,0.118-0.402,0.263-0.568,0.44c-1.631,1.338-6.828,6.791-7.264,14.164
			c-0.66,11.244,4.803,15.798,6.662,19.97l-1.484,24.504c0,1.229,2.482,2.228,3.713,2.228
			C121.406,111.361,123.889,110.364,123.889,109.134z"/>
		<path fill="#010101" d="M41.392,74.332l3.845,1.919c0.438,0.221,0.921,0.381,1.425,0.499l-1.484,33.418
			c0,1.032,2.483,1.868,3.712,1.868c1.23,0,3.713-0.836,3.713-1.868L51.118,76.58c0.522-0.165,1.026-0.366,1.467-0.636l2.848-1.734
			c2.055-1.255,3.604-4.011,3.604-6.419V52.817c0-1.229-0.999-2.227-2.228-2.227s-2.228,0.998-2.228,2.227v13.488h-1.237V52.817
			c0-1.229-0.998-2.227-2.228-2.227s-2.228,0.998-2.228,2.227v13.488h-1.241V52.817c0-1.229-0.998-2.227-2.228-2.227
			c-1.229,0-2.227,0.998-2.227,2.227v13.488h-1.234V53.299c0-1.229-0.998-2.227-2.228-2.227c-1.229,0-2.228,0.998-2.228,2.227v14.74
			C37.504,70.518,39.176,73.224,41.392,74.332z"/>
	</g>
</g>
</svg>