<svg height="853.33331pt" viewBox="-26 -26 853.33331 853.33331" width="853.33331pt" xmlns="http://www.w3.org/2000/svg"><path d="m198.25-1.75h-160c-22.089844 0-40 17.910156-40 40v293.332031c0 22.09375 17.910156 40.003907 40 40.003907h160c22.089844 0 40-17.910157 40-40.003907v-293.332031c0-22.089844-17.910156-40-40-40zm-160 346.671875c-7.363281 0-13.335938-5.972656-13.335938-13.339844v-34.480469l47.820313 47.820313zm72.1875 0-85.523438-85.527344v-55.625l141.152344 141.152344zm101.148438-13.339844c-.023438 5.558594-3.519532 10.515625-8.75 12.402344l-177.921876-177.917969v-55.628906l186.671876 186.664062zm0-72.1875-186.671876-186.660156v-34.484375c.027344-5.554688 3.515626-10.511719 8.746094-12.402344l177.925782 177.921875zm0-93.328125-141.148438-141.152344h55.625l85.523438 85.523438zm0-93.332031-47.8125-47.820313h34.476562c7.363281 0 13.335938 5.972657 13.335938 13.335938zm0 0"/><path d="m518.25 38.25c0-22.089844-17.90625-40-40-40h-160c-22.09375 0-40 17.910156-40 40v293.332031c0 22.09375 17.90625 40.003907 40 40.003907h160c22.09375 0 40-17.910157 40-40.003907zm-200 306.671875c-7.363281 0-13.335938-5.972656-13.335938-13.339844v-34.480469l47.820313 47.820313zm72.1875 0-85.523438-85.527344v-55.625l141.148438 141.152344zm101.148438-13.339844c-.023438 5.558594-3.515626 10.515625-8.746094 12.402344l-177.925782-177.917969v-55.628906l186.671876 186.664062zm0-72.1875-186.671876-186.660156v-34.484375c.027344-5.554688 3.515626-10.511719 8.746094-12.402344l177.925782 177.921875zm0-93.328125-141.148438-141.152344h55.625l85.523438 85.523438zm0-93.332031-47.816407-47.820313h34.480469c7.363281 0 13.335938 5.972657 13.335938 13.335938zm0 0"/><path d="m758.25-1.75h-160c-22.089844 0-40 17.910156-40 40v293.332031c0 22.09375 17.910156 40.003907 40 40.003907h160c22.089844 0 40-17.910157 40-40.003907v-293.332031c0-22.089844-17.910156-40-40-40zm-160 346.671875c-7.363281 0-13.335938-5.972656-13.335938-13.339844v-34.480469l47.8125 47.820313zm72.1875 0-85.523438-85.527344v-55.625l141.148438 141.152344zm101.148438-13.339844c-.023438 5.558594-3.515626 10.515625-8.746094 12.402344l-177.925782-177.917969v-55.628906l186.671876 186.664062zm0-72.1875-186.671876-186.660156v-34.484375c.027344-5.554688 3.523438-10.511719 8.75-12.402344l177.921876 177.921875zm0-93.328125-141.152344-141.152344h55.628906l85.523438 85.523438zm0-93.332031-47.816407-47.820313h34.480469c7.363281 0 13.335938 5.972657 13.335938 13.335938zm0 0"/><path d="m573.597656 628.171875c-2.105468-11.316406-9.300781-21.035156-19.507812-26.351563l-8.160156-4.234374c-2.800782-1.480469-5.058594-3.816407-6.4375-6.664063l-1.617188-3.363281c-6.671875-14.214844-20.949219-23.300782-36.652344-23.335938h-15.238281c-10.574219-16.3125-28.316406-26.585937-47.734375-27.621094v-95.871093c.429688-20.175781-13.578125-37.792969-33.335938-41.917969-11.488281-1.929688-23.242187 1.289062-32.148437 8.804688-9.257813 7.890624-14.5625 19.453124-14.515625 31.621093v170.851563l-17.234375 7.160156c-36.101563 14.960938-36.101563 56.5625-36.101563 74.335938 0 26.386718 0 106.664062 105.839844 106.664062h94.746094c45.671875 0 69.335938-20.824219 76.640625-67.546875 3.308594-22.886719 2.613281-46.171875-2.035156-68.824219zm-17.785156 98.390625c-5.296875 33.652344-17.988281 45.023438-50.3125 45.023438h-94.746094c-73.050781 0-79.171875-41.332032-79.171875-80 0-29.523438 5.691407-43.921876 19.640625-49.707032l7.027344-2.90625v39.277344c0 7.363281 5.96875 13.335938 13.335938 13.335938 7.359374 0 13.328124-5.972657 13.328124-13.335938v-239.011719c-.039062-4.324219 1.832032-8.449219 5.109376-11.269531 2.886718-2.480469 6.738281-3.527344 10.476562-2.851562 6.902344 1.960937 11.511719 8.457031 11.085938 15.613281v157.519531c0 7.363281 5.972656 13.335938 13.328124 13.335938 7.371094 0 13.335938-5.972657 13.335938-13.335938v-34.597656c11.328125 1.113281 21.367188 7.792968 26.773438 17.8125 0 .183594-.101563.339844-.101563.53125v29.589844c0 7.363281 5.964844 13.328124 13.328125 13.328124s13.335938-5.964843 13.335938-13.328124v-20.753907h9.636718c5.449219.089844 10.363282 3.296875 12.628906 8.257813l1.625 3.359375c.820313 1.640625 1.75 3.226562 2.773438 4.746093v17.71875c0 7.371094 5.972656 13.335938 13.332031 13.335938 6.21875-.054688 11.546875-4.453125 12.773438-10.546875 1.53125 1.507813 2.601562 3.429687 3.070312 5.519531l6.488281 33.710938c4.0625 19.617187 4.699219 39.789062 1.898438 59.628906zm0 0"/><path d="m468.828125 415.492188c-5.207031 5.210937-5.207031 13.640624 0 18.851562l26.664063 26.671875c5.230468 5.046875 13.542968 4.980469 18.6875-.167969 5.144531-5.144531 5.21875-13.457031.164062-18.691406l-26.664062-26.664062c-5.207032-5.207032-13.648438-5.207032-18.851563 0zm0 0"/><path d="m327.675781 415.492188c-5.207031-5.207032-13.648437-5.207032-18.855469 0l-26.664062 26.664062c-3.464844 3.351562-4.851562 8.300781-3.632812 12.96875 1.214843 4.660156 4.859374 8.300781 9.523437 9.523438 4.660156 1.21875 9.617187-.175782 12.960937-3.632813l26.667969-26.671875c5.203125-5.210938 5.203125-13.640625 0-18.851562zm0 0"/></svg>